<?xml version="1.0" encoding="UTF-8"?>
<svg id="Layer_1" data-name="Layer 1" xmlns="http://www.w3.org/2000/svg" viewBox="0 0 3716.64 2980.32">
  <defs>
    <style>
      .cls-1, .cls-2, .cls-3, .cls-4, .cls-5, .cls-6, .cls-7, .cls-8, .cls-9, .cls-10, .cls-11, .cls-12, .cls-13, .cls-14 {
        stroke-miterlimit: 10;
      }

      .cls-1, .cls-2, .cls-3, .cls-4, .cls-5, .cls-7, .cls-8, .cls-9, .cls-10, .cls-11, .cls-12, .cls-13, .cls-14 {
        stroke: #000;
      }

      .cls-1, .cls-3, .cls-5, .cls-8, .cls-11, .cls-12, .cls-13, .cls-14 {
        stroke-width: 7px;
      }

      .cls-1, .cls-5, .cls-15, .cls-13, .cls-14 {
        opacity: .5;
      }

      .cls-2, .cls-3 {
        fill: #fbb03b;
      }

      .cls-2, .cls-4, .cls-9 {
        stroke-width: 5px;
      }

      .cls-4 {
        fill: #c69c6d;
      }

      .cls-5 {
        fill: #fff;
      }

      .cls-6 {
        fill: #ed1c24;
        stroke: #c1272d;
        stroke-width: 30px;
      }

      .cls-16 {
        fill: #009245;
        font-size: 350px;
      }

      .cls-7 {
        fill: #42210b;
      }

      .cls-17, .cls-18 {
        font-size: 300px;
      }

      .cls-8 {
        fill: #e6e6e6;
      }

      .cls-19 {
        font-family: Futura-CondensedExtraBold, Futura;
        font-weight: 700;
      }

      .cls-20 {
        fill: #39b54a;
      }

      .cls-9 {
        fill: #c7b299;
      }

      .cls-18 {
        letter-spacing: 0em;
      }

      .cls-10 {
        fill: none;
        stroke-width: 8px;
      }

      .cls-21 {
        letter-spacing: 0em;
      }

      .cls-11 {
        fill: #c1272d;
      }

      .cls-13 {
        fill: #29abe2;
      }

      .cls-14 {
        fill: #2e3192;
      }
    </style>
  </defs>
  <path class="cls-4" d="M1912.2,591.23v-.54c-18.91-.66-37.32-.93-55.25-.86-17.93-.07-36.34.2-55.25.86v.54c-646.21,30.71-607.5,551.88-607.5,551.88h1325.5s38.71-521.17-607.5-551.88Z"/>
  <polygon class="cls-2" points="1193.76 1077.65 949.7 1273.1 2775.98 1273.1 2513.57 1046.77 2519.7 1143.1 1194.2 1143.1 1193.76 1077.65"/>
  <path d="M2525.59,1282.08c.38-4.53-1.42-9.16-4.71-12.28-.59-.56-1.54-.58-2.12,0s-.59,1.56,0,2.12c2.79,2.65,4.15,6.35,3.83,10.16-.07.81.74,1.5,1.5,1.5.87,0,1.43-.69,1.5-1.5h0Z"/>
  <rect class="cls-4" x="1267.7" y="1697.65" width="1190" height="308.7" rx="11.33" ry="11.33"/>
  <circle class="cls-6" cx="1368.7" cy="1698.1" r="198"/>
  <circle class="cls-6" cx="1850.2" cy="1683.6" r="210"/>
  <circle class="cls-6" cx="2276.34" cy="1573.1" r="252.5"/>
  <g>
    <path class="cls-20" d="M1183.13,1463.04c-22.04,58.29-44.18,123.03-22.08,181.29,8.07,21.28,25.08,42.18,47.81,43.13,15.86.66,30.32-8.52,43.1-17.93,39.05-28.75,73.95-63.11,103.29-101.71,6.85,43.74,13.69,87.48,20.54,131.22,1.82,11.64,4.14,24.22,12.87,32.13,21.26,19.26,53.47-5.74,69.07-29.82,20.93-32.32,38.53-66.8,52.42-102.71-3.64,49.72-.9,103.41,28.78,143.46,29.68,40.05,94.66,56.6,130.04,21.48,12.49-12.39,19.61-29.08,25.94-45.5,14.24-36.92,25.99-74.8,35.16-113.3.81,31.7,1.78,64.19,13.59,93.61,11.81,29.43,36.94,55.63,68.42,59.44,34.67,4.2,67.81-19.96,84.99-50.37s21.75-66.1,26-100.76c7.63,56.9,40.47,109.95,88,142.16,16.87,11.44,39.14,20.36,57.08,10.68,13.49-7.28,19.99-22.75,25.5-37.06,17.57-45.61,35.15-91.23,52.72-136.84,3.58-9.29,7.68-19.22,16.14-24.45,14.79-9.13,34.8,1.41,44.15,16.06s12.13,32.5,19.51,48.24c13.94,29.68,47.95,50.69,79.95,43.56s54.22-46.81,38.65-75.68c22.39,20.89,44.77,41.78,67.16,62.67,20.01,18.68,41.25,38.04,67.83,44.63,26.57,6.59,59.74-4.82,67.57-31.05,3.65-12.21,1.36-25.29-.54-37.9-8.87-58.83-8.59-119.03.83-177.78"/>
    <path d="M1181.68,1462.64c-21.52,57.02-45.6,123.86-21.35,183.97,8.45,20.93,26.24,42.84,50.9,42.38,14.34-.27,27.25-7.96,38.58-16.06,12.25-8.75,24.02-18.22,35.37-28.1,26.34-22.92,50.18-48.52,71.37-76.26l-2.74-.36c4.56,29.16,9.13,58.32,13.69,87.48,2.28,14.58,4.53,29.17,6.85,43.74,1.64,10.3,3.52,21.33,10.31,29.66,11.78,14.46,30.51,11.6,44.77,2.75,19.34-12,31.14-31.33,42.4-50.49,15.47-26.32,28.69-53.88,39.76-82.32l-2.95-.4c-4.15,58.31.16,131.81,53.92,167.72,20.76,13.86,47.12,21.16,71.96,16.56,29.23-5.41,46.51-27.59,57.55-53.74,16.85-39.88,29.37-81.95,39.44-124l-2.95-.4c1.33,51.76,5.24,114.55,54.78,144.48,45.74,27.63,97.12-4.66,118.43-47.48,14.7-29.52,18.82-62.75,22.79-95.08l-2.95.4c6.91,49.48,32.08,95.86,69.86,128.59,17.05,14.77,39.7,31.58,63.59,29.27s33.45-25.06,41.02-44.67c11.95-30.98,23.88-61.97,35.81-92.95,5.78-15.01,11.31-30.15,17.38-45.05,5.72-14.03,15.65-26.31,32.43-22.08,29.98,7.55,32.29,43.72,43.6,66.93,9.81,20.12,28.52,36.21,50.14,42.28,22.65,6.36,46.32.06,61.57-18.11,13.65-16.27,19.03-39.25,9.05-58.7l-2.36,1.82c25.73,24.01,51.15,48.43,77.29,72.01,19.8,17.86,43.43,36.31,71.23,37.5,21.15.9,45.27-8.32,54.54-28.62,5.99-13.11,3.89-27.71,1.84-41.47-2.78-18.55-4.83-37.18-5.87-55.91-2.3-41.3-.13-82.75,6.32-123.6.3-1.89-2.59-2.7-2.89-.8-5.09,32.2-7.62,64.76-7.31,97.37.15,16.68,1.03,33.34,2.62,49.94,1.56,16.25,4.99,32.42,6.07,48.68.95,14.32-2.34,27.81-13.28,37.63-9.22,8.27-21.64,12.62-33.85,13.6-28.56,2.3-53.48-15.43-73.86-33.39-27.54-24.28-53.89-50.03-80.73-75.08-1.26-1.18-3.13.3-2.36,1.82,10.19,19.86,3.04,43.72-12.14,58.95-16.92,16.98-41.69,19.65-63.32,10.56-24.9-10.46-38.88-31.54-47.17-56.3-6.68-19.98-14.34-42.39-36.52-49.48-8.33-2.66-17.38-1.95-24.51,3.38-8.15,6.09-11.86,16.14-15.39,25.29-10.97,28.39-21.89,56.8-32.83,85.21-5.47,14.2-10.94,28.4-16.41,42.6-4.69,12.17-8.91,25.43-17.56,35.48-19.87,23.11-50.86,8.75-71.03-5.91-44.58-32.42-74.48-83.11-82.09-137.6-.25-1.82-2.76-1.11-2.95.4-6.24,50.8-14.92,109.9-62.98,138.73-20.97,12.58-46.33,15.32-68.51,4.13s-36.85-30.88-45.43-52.73c-11.47-29.19-12.28-61.1-13.08-92.05-.04-1.65-2.54-2.09-2.95-.4-8.3,34.64-18.59,68.79-30.96,102.2-10.57,28.53-22.6,60.26-54,70.87-23.93,8.09-50.96,2.76-72.55-9.37-25.28-14.2-41.67-38.26-50.66-65.43-11.05-33.37-11.27-69.3-8.8-104.02.13-1.81-2.38-1.86-2.95-.4-8.96,23.01-19.35,45.44-31.22,67.09-10.72,19.54-21.74,40.65-38.59,55.65-14.73,13.12-39.48,24.57-53.54,3.99-6.24-9.14-7.29-21.16-8.96-31.8-2-12.76-3.99-25.51-5.99-38.27-4.56-29.16-9.13-58.32-13.69-87.48-.23-1.44-2.06-1.25-2.74-.36-17.59,23.02-37.07,44.56-58.28,64.3-10.06,9.36-20.49,18.31-31.28,26.82-11.86,9.35-24.34,19.71-38.7,24.92-28.96,10.51-52.23-12.06-62.47-37.29-11.29-27.82-11.71-58.76-6.88-88.03,5.36-32.49,16.64-63.65,28.23-94.35.68-1.81-2.22-2.59-2.89-.8h0Z"/>
  </g>
  <rect class="cls-7" x="1140.7" y="1273.1" width="1418" height="200" rx="30.18" ry="30.18"/>
  <path class="cls-9" d="M1422.7,959.1s19-83,99-79c0,0-37,72-99,79Z"/>
  <path class="cls-9" d="M1813.53,1006.8s-81.03,26.17-118.54-44.6c0,0,80.79-5.07,118.54,44.6Z"/>
  <path class="cls-9" d="M1625.53,1043.8s-81.03,26.17-118.54-44.6c0,0,80.79-5.07,118.54,44.6Z"/>
  <path class="cls-9" d="M1904.7,999.1s19-83,99-79c0,0-37,72-99,79Z"/>
  <path class="cls-9" d="M2257.7,1048.1s-16.79-66.6-87.5-63.39c0,0,32.7,57.77,87.5,63.39Z"/>
  <path class="cls-9" d="M1640.7,866.1s19-83,99-79c0,0-37,72-99,79Z"/>
  <path class="cls-9" d="M1516.7,793.1s19-83,99-79c0,0-37,72-99,79Z"/>
  <path class="cls-9" d="M1904.7,833.1s19-83,99-79c0,0-37,72-99,79Z"/>
  <path class="cls-9" d="M1807.7,735.1s19-83,99-79c0,0-37,72-99,79Z"/>
  <path class="cls-9" d="M2085.7,775.1s19-83,99-79c0,0-37,72-99,79Z"/>
  <path class="cls-9" d="M2216.24,899.64s-84.52,10.34-107.95-66.25c0,0,80.29,10.32,107.95,66.25Z"/>
  <g>
    <path d="M427.03,230.27h-61.08v-95.8L309.84,4.1h63.72l10.99,33.54c2.15,6.54,4.08,12.84,5.79,18.9,1.71,6.06,3.25,11.87,4.61,17.43,2.25-8.3,4.2-15.45,5.86-21.46,1.66-6.01,3.12-10.86,4.39-14.58l11.13-33.84h63.28l-52.59,130.37v95.8Z"/>
    <path d="M652.03,117.92c0,34.47-7.86,62.5-23.58,84.08-15.63,21.49-35.99,32.23-61.08,32.23-22.27,0-41.36-8.25-57.28-24.76-20.02-20.9-30.03-52.24-30.03-94.04s10.45-70.65,31.35-91.85c15.53-15.72,33.93-23.58,55.22-23.58,26.07,0,46.82,10.65,62.26,31.93,15.43,21.29,23.14,49.95,23.14,85.99ZM588.6,118.36c0-40.92-7.23-61.38-21.68-61.38-7.23,0-12.99,5.37-17.29,16.11-4.2,9.96-6.3,24.61-6.3,43.95s1.98,33.81,5.93,44.31c3.96,10.5,9.45,15.75,16.48,15.75s12.79-5.17,16.7-15.53c4.1-10.35,6.15-24.76,6.15-43.21Z"/>
    <path d="M770.39,4.1h61.08v159.96c0,13.38-2.1,24.22-6.3,32.52-4.1,8.69-10.94,16.55-20.51,23.58-12.89,9.38-28.56,14.06-47.02,14.06-20.9,0-38.43-5.17-52.59-15.53-17.97-13.18-26.95-34.28-26.95-63.28V4.1h61.08v145.9c0,9.86,1.19,16.85,3.59,20.95,2.39,4.1,6.42,6.15,12.08,6.15s9.91-1.9,12.16-5.71c2.25-4,3.37-11.08,3.37-21.24V4.1Z"/>
    <path d="M1023.95,230.27h-66.06l-30.18-80.57c-.29-1.37-.81-3.17-1.54-5.42-.73-2.25-1.64-4.93-2.71-8.06l.44,14.94v79.1h-60.79V4.1h62.55c27.54,0,48.14,5.42,61.82,16.26,17.38,13.87,26.07,33.6,26.07,59.18,0,27.34-11.67,46.24-35.01,56.69l45.41,94.04ZM924.2,108.84h4.1c7.03,0,12.89-2.68,17.58-8.06,4.69-5.37,7.03-12.21,7.03-20.51,0-16.89-8.84-25.34-26.51-25.34h-2.2v53.91Z"/>
    <path d="M1195.49,230.27h-61.08V4.1h107.96v53.17h-46.88v32.96h43.65v51.12h-43.65v88.92Z"/>
    <path d="M1423.56,230.27h-63.13l-4.54-28.71h-41.16l-4.98,28.71h-63.13l54.35-226.17h74.71l47.9,226.17ZM1348.71,153.08l-3.96-26.37c-.1-.1-.29-1.41-.59-3.96-.2-2.15-1.22-10.64-3.08-25.49-.2-1.66-.44-3.93-.73-6.81-.29-2.88-.68-6.52-1.17-10.91l-1.9-21.39c-.2,2.05-.46,4.35-.81,6.88-.34,2.54-.71,5.32-1.1,8.35-.68,6.06-1.17,10.25-1.46,12.6s-.49,3.76-.59,4.25l-4.25,27.39-6.15,35.45h25.78Z"/>
    <path d="M1539.58,230.27h-62.26l-51.86-226.17h64.16l11.13,64.6c4.2,24.71,7.57,52.35,10.11,82.91,1.07-13.57,2.39-26.27,3.96-38.09,1.56-11.81,3.42-23.34,5.57-34.57l14.5-74.85h66.36l-61.67,226.17Z"/>
    <path d="M1777.32,117.92c0,34.47-7.86,62.5-23.58,84.08-15.63,21.49-35.99,32.23-61.08,32.23-22.27,0-41.36-8.25-57.28-24.76-20.02-20.9-30.03-52.24-30.03-94.04s10.45-70.65,31.35-91.85c15.53-15.72,33.93-23.58,55.22-23.58,26.07,0,46.82,10.65,62.26,31.93,15.43,21.29,23.14,49.95,23.14,85.99ZM1713.9,118.36c0-40.92-7.23-61.38-21.68-61.38-7.23,0-12.99,5.37-17.29,16.11-4.2,9.96-6.3,24.61-6.3,43.95s1.98,33.81,5.93,44.31c3.96,10.5,9.45,15.75,16.48,15.75s12.79-5.17,16.7-15.53c4.1-10.35,6.15-24.76,6.15-43.21Z"/>
    <path d="M1895.68,4.1h61.08v159.96c0,13.38-2.1,24.22-6.3,32.52-4.1,8.69-10.94,16.55-20.51,23.58-12.89,9.38-28.56,14.06-47.02,14.06-20.9,0-38.43-5.17-52.59-15.53-17.97-13.18-26.95-34.28-26.95-63.28V4.1h61.08v145.9c0,9.86,1.19,16.85,3.59,20.95,2.39,4.1,6.42,6.15,12.08,6.15s9.91-1.9,12.16-5.71c2.25-4,3.37-11.08,3.37-21.24V4.1Z"/>
    <path d="M2149.25,230.27h-66.06l-30.18-80.57c-.29-1.37-.81-3.17-1.54-5.42-.73-2.25-1.64-4.93-2.71-8.06l.44,14.94v79.1h-60.79V4.1h62.55c27.54,0,48.14,5.42,61.82,16.26,17.38,13.87,26.07,33.6,26.07,59.18,0,27.34-11.67,46.24-35.01,56.69l45.41,94.04ZM2049.49,108.84h4.1c7.03,0,12.89-2.68,17.58-8.06,4.69-5.37,7.03-12.21,7.03-20.51,0-16.89-8.84-25.34-26.51-25.34h-2.2v53.91Z"/>
    <path d="M2230.55,230.27h-61.08V4.1h61.08v226.17Z"/>
    <path d="M2341.14,230.27h-61.08V58.3h-33.69V4.1h129.79v54.2h-35.01v171.97Z"/>
    <path d="M2391.97,230.27V4.1h113.53v53.17h-52.44v32.96h47.02v51.12h-47.02v34.57h52.44v54.35h-113.53Z"/>
    <path d="M2682.89,230.27h-61.08V4.1h107.96v53.17h-46.88v32.96h43.65v51.12h-43.65v88.92Z"/>
    <path d="M2919.46,117.92c0,34.47-7.86,62.5-23.58,84.08-15.63,21.49-35.99,32.23-61.08,32.23-22.27,0-41.36-8.25-57.28-24.76-20.02-20.9-30.03-52.24-30.03-94.04s10.45-70.65,31.35-91.85c15.53-15.72,33.93-23.58,55.22-23.58,26.07,0,46.82,10.65,62.26,31.93,15.43,21.29,23.14,49.95,23.14,85.99ZM2856.03,118.36c0-40.92-7.23-61.38-21.68-61.38-7.23,0-12.99,5.37-17.29,16.11-4.2,9.96-6.3,24.61-6.3,43.95s1.98,33.81,5.93,44.31c3.96,10.5,9.45,15.75,16.48,15.75s12.79-5.17,16.7-15.53c4.1-10.35,6.15-24.76,6.15-43.21Z"/>
    <path d="M3111.8,117.92c0,34.47-7.86,62.5-23.58,84.08-15.63,21.49-35.99,32.23-61.08,32.23-22.27,0-41.36-8.25-57.28-24.76-20.02-20.9-30.03-52.24-30.03-94.04s10.45-70.65,31.35-91.85c15.53-15.72,33.93-23.58,55.22-23.58,26.07,0,46.82,10.65,62.26,31.93,15.43,21.29,23.14,49.95,23.14,85.99ZM3048.37,118.36c0-40.92-7.23-61.38-21.68-61.38-7.23,0-12.99,5.37-17.29,16.11-4.2,9.96-6.3,24.61-6.3,43.95s1.98,33.81,5.93,44.31c3.96,10.5,9.45,15.75,16.48,15.75s12.79-5.17,16.7-15.53c4.1-10.35,6.15-24.76,6.15-43.21Z"/>
    <path d="M3137.87,230.27V4.1h52.73c30.18,0,53.66,8.11,70.46,24.32,22.07,21.19,33.11,50.83,33.11,88.92s-9.33,66.46-27.98,86.87c-15.92,17.38-39.65,26.07-71.19,26.07h-57.13ZM3198.95,175.63c21.87-1.07,32.81-19.92,32.81-56.54,0-18.07-2.78-32.32-8.35-42.77-5.57-10.55-13.09-15.82-22.56-15.82h-1.9v115.14Z"/>
    <path d="M3315.41,224.71v-71.04c12.01,16.41,25,24.61,38.96,24.61,5.27,0,9.57-1.39,12.89-4.17,3.32-2.78,4.98-6.27,4.98-10.47,0-6.05-3.61-11.96-10.84-17.72l-9.96-7.76c-6.64-4.98-12.3-9.94-16.99-14.87-4.69-4.93-8.5-10.01-11.43-15.23-2.93-5.22-5.08-10.62-6.45-16.19-1.37-5.57-2.05-11.43-2.05-17.58,0-10.55,2.44-21.58,7.32-33.11,2.44-5.37,5.27-10.28,8.5-14.72,3.22-4.44,6.93-8.37,11.13-11.79,11.52-9.76,25.44-14.65,41.75-14.65,14.55,0,29.2,3.86,43.95,11.57v69.14c-4.98-7.71-10.65-13.79-16.99-18.24-6.35-4.44-12.6-6.67-18.75-6.67-4.69,0-8.55,1.37-11.57,4.1-3.13,2.64-4.69,5.81-4.69,9.52,0,6.06,4.15,12.06,12.45,18.02l9.67,7.18c12.89,9.28,22.12,18.8,27.69,28.56,5.66,9.77,8.5,21.19,8.5,34.28,0,22.27-6.79,40.63-20.36,55.08-13.58,14.45-30.76,21.68-51.56,21.68-14.36,0-29.74-3.17-46.14-9.52Z"/>
  </g>
  <g class="cls-15">
    <g>
      <polygon class="cls-3" points="3009.93 966.32 2821.99 1100.31 3030.85 1137.77 3009.93 966.32"/>
      <path class="cls-8" d="M2968.21,1250.07v-319.46s89.72-189.73,197.74,0v319.46s28,199.16,144.02,202.59c116.01,3.43,139.44,93.72,136.01,191.45-3.43,97.72-477.77,43.75-477.77,43.75v-437.8Z"/>
      <path class="cls-11" d="M2894.92,1113.39s-46.73,242.12-15.87,203.25c30.86-38.86,41.15-147.44,41.15-147.44,0,0-22.86,220.02,19.43,214.31,42.29-5.71,28.57-256.98,28.57-256.98l-73.29-13.14Z"/>
      <line class="cls-10" x1="2979.14" y1="978.88" x2="3065.51" y2="978.88"/>
      <line class="cls-10" x1="2821.99" y1="1100.31" x2="2968.01" y2="1064.66"/>
    </g>
    <ellipse class="cls-12" cx="3030.84" cy="1028.44" rx="9.56" ry="23.68"/>
    <path class="cls-11" d="M2968.21,930.6s-36.08-80.57,2.12-101.54,8.81,33.82,8.81,33.82c0,0,16.64-85.75,61.26-83.02,44.62,2.73-8.2,36.91-9.56,47.59-1.37,10.68,27.34-95.24,83.56-89.63,56.22,5.61-.24,18.36-21.18,70.26-20.94,51.9-20.94,67.38-20.94,67.38"/>
    <path class="cls-8" d="M3383.52,1471.97s111.49-188.26,82.7-223.47c-28.8-35.21,299.01-115.34,236.18-63.44-62.83,51.9-149.34,119.29-149.34,119.29,0,0,224-81.04,142.05-3.64-81.95,77.4-172.1,104.72-172.1,104.72,0,0,267.71,4.55,133.86,53.72-133.86,49.17-213.14,195.14-213.14,195.14"/>
    <polyline class="cls-3" points="2968.21 1687.86 3008.53 1966.34 3045.7 1966.34 2995.33 1687.86"/>
    <polyline class="cls-3" points="3329.8 1693.32 3289.48 1971.81 3252.31 1971.81 3302.69 1693.32"/>
    <polyline class="cls-3" points="3008.53 1966.34 2868.52 2003.57 3045.7 1984.96 3045.7 1966.34"/>
    <polyline class="cls-3" points="3252.73 1972.26 3112.72 2009.49 3289.9 1990.88 3289.9 1972.26"/>
    <line class="cls-3" x1="2979.14" y1="1753.57" x2="3006.96" y2="1753.57"/>
    <line class="cls-3" x1="3291.47" y1="1765.4" x2="3319.29" y2="1765.4"/>
    <line class="cls-3" x1="2986.43" y1="1804.56" x2="3014.24" y2="1804.56"/>
    <line class="cls-3" x1="3283.28" y1="1812.75" x2="3311.3" y2="1812.75"/>
    <path class="cls-8" d="M3021.28,1490.29s105.11,179.4,231.03,152.44c125.92-26.96-35.91-74.84-35.91-74.84,0,0,103.95-4.77,35.91-44.46,0,0,53.07,14.48,58.99-12.15s-234.47-80.36-234.47-80.36"/>
  </g>
  <g>
    <path class="cls-13" d="M116.79,1099.87s414.07-371.69,805.99-262.97c0,0,53.1,1315.81-589.78,758.41l-216.21-495.45Z"/>
    <polygon class="cls-13" points="115.36 1102.1 10.66 1091.83 95.65 1165.05 49.78 1311.5 160.59 1194.67 115.36 1102.1"/>
    <polyline class="cls-13" points="630.73 1232.62 568.78 1474.09 520.32 1274.96"/>
    <path class="cls-14" d="M303.29,1155.5s-33.12,132.75,55.5,197.86"/>
    <path class="cls-14" d="M333.63,1134s-33.12,132.75,55.5,197.86"/>
    <path class="cls-14" d="M363.97,1113.78s-33.12,132.75,55.5,197.86"/>
    <circle class="cls-5" cx="772.33" cy="970.91" r="111.26"/>
    <path class="cls-1" d="M759.45,955.61c0-6.09.03-12.31,1.96-18.09,3.5-10.51,13.09-18.25,23.67-21.5,8.1-2.49,17.93-2.24,23.86,3.82,2.9,2.96,4.5,6.93,5.92,10.82,4.55,12.45,7.98,25.31,10.26,38.37-7.07-.26-14.16.06-21.18.95,3.6,5.96,5.17,13.13,4.39,20.05,5.54-5.04,13.3-7.56,20.75-6.74-2.45,15.12,4.2,32.32-4.35,45.03-4.29,6.38-11.6,10.03-18.86,12.55-56.27,19.54-46.46-54.05-46.42-85.25Z"/>
  </g>
  <text class="cls-19" transform="translate(775.82 2447.19)"><tspan class="cls-17"><tspan x="0" y="0">FIGHT </tspan><tspan class="cls-21" x="817.38" y="0">F</tspan><tspan x="948.78" y="0">OR </tspan><tspan class="cls-21" x="1412.4" y="0">F</tspan><tspan x="1543.8" y="0">OODS</tspan></tspan><tspan class="cls-17" x="-396.84" y="420">WITH </tspan><tspan class="cls-16" x="354.48" y="420">LESS</tspan><tspan class="cls-17" x="983.22" y="420" xml:space="preserve"> ANTIBI</tspan><tspan class="cls-18" x="1940.05" y="420">O</tspan><tspan class="cls-17" x="2134.14" y="420">TICS</tspan></text>
</svg>