<?xml version="1.0" encoding="UTF-8"?>
<svg id="Layer_1" data-name="Layer 1" xmlns="http://www.w3.org/2000/svg" xmlns:xlink="http://www.w3.org/1999/xlink" viewBox="0 0 3432.14 3560.72">
  <defs>
    <style>
      .cls-1 {
        fill: url(#radial-gradient-2);
      }

      .cls-1, .cls-2, .cls-3, .cls-4, .cls-5, .cls-6, .cls-7, .cls-8 {
        stroke: #000;
        stroke-miterlimit: 10;
        stroke-width: 7px;
      }

      .cls-2 {
        fill: url(#radial-gradient-3);
      }

      .cls-9 {
        fill: #009245;
      }

      .cls-10 {
        fill: #8cc63f;
      }

      .cls-3 {
        fill: #ff7bac;
      }

      .cls-11 {
        fill: #39b54a;
      }

      .cls-4 {
        fill: url(#radial-gradient);
      }

      .cls-5 {
        fill: aqua;
      }

      .cls-12 {
        fill: #22b573;
      }

      .cls-13 {
        opacity: .5;
      }

      .cls-6 {
        fill: none;
      }

      .cls-7 {
        fill: lime;
      }

      .cls-14 {
        fill: #006837;
      }

      .cls-8 {
        fill: #29abe2;
      }
    </style>
    <radialGradient id="radial-gradient" cx="1856.54" cy="1497.48" fx="1856.54" fy="1497.48" r="263.02" gradientUnits="userSpaceOnUse">
      <stop offset="0" stop-color="#ff0"/>
      <stop offset=".99" stop-color="#00e100"/>
    </radialGradient>
    <radialGradient id="radial-gradient-2" cx="1856.54" cy="1379.64" fx="1856.54" fy="1379.64" r="113.19" gradientUnits="userSpaceOnUse">
      <stop offset=".05" stop-color="#fcee21"/>
      <stop offset="1" stop-color="#8cc63f"/>
    </radialGradient>
    <radialGradient id="radial-gradient-3" cx="1856.54" cy="1583.74" fx="1856.54" fy="1583.74" r="134.36" gradientUnits="userSpaceOnUse">
      <stop offset="0" stop-color="#fcee21"/>
      <stop offset="1" stop-color="#8cc63f"/>
    </radialGradient>
  </defs>
  <g>
    <path d="M1,1222.02h94.31c73.79,0,110.69,45.82,110.69,137.45,0,35-4.8,60.98-14.38,77.92-9.59,16.95-26.53,29.76-50.83,38.46,27.87,11.15,46.93,25.42,57.19,42.81,10.48,17.17,15.72,43.03,15.72,77.59,0,94.76-40.58,142.13-121.73,142.13H1v-516.34ZM66.55,1449.43c26.97,0,45.7-6.24,56.18-18.73,10.48-13.15,15.72-36.23,15.72-69.22,0-55.73-20.07-83.6-60.2-83.6h-8.36c-1.79,0-2.9.12-3.34.33v171.22ZM66.55,1678.84c28.54,0,48.27-6.13,59.19-18.39,10.92-12.26,16.39-34.45,16.39-66.55s-5.69-56.07-17.06-69.22c-11.15-13.38-30.66-20.07-58.52-20.07v174.23Z"/>
    <path d="M358.49,1222.02h54.18l110.69,516.34h-68.89l-19.4-100.66h-102.33l-19.73,100.66h-66.88l112.36-516.34ZM425.04,1583.86l-15.38-82.27c-10.26-55.96-18.62-115.71-25.08-179.25-3.12,30.99-7.14,62.37-12.04,94.14-4.91,31.77-10.7,65.49-17.39,101.16l-12.71,66.21h82.6Z"/>
    <path d="M762.14,1230.38v62.54c-17.84-8.69-32.77-13.04-44.81-13.04-16.5,0-30.66,4.07-42.47,12.21-11.82,8.14-21.57,20.68-29.26,37.62-7.69,16.95-13.38,38.41-17.06,64.38-3.68,25.97-5.52,56.68-5.52,92.13,0,127.53,32.66,191.29,97.98,191.29,11.37,0,25.08-3.56,41.13-10.7v63.87c-16.72,9.36-35.45,14.05-56.18,14.05-104.56,0-156.84-85.39-156.84-256.16,0-92.3,12.76-160.97,38.29-206,25.53-45.03,64.6-67.55,117.21-67.55,19.4,0,38.57,5.13,57.52,15.38Z"/>
    <path d="M779.53,1222.02h226.4v60.86h-77.92v455.48h-68.22v-455.48h-80.26v-60.86Z"/>
    <path d="M1044.39,1222.02h184.93v58.86h-115.37v163.53h102.33v58.86h-102.33v176.24h115.37v58.86h-184.93v-516.34Z"/>
    <path d="M1293.19,1222.02h91.63c37.9,0,66.1,9.03,84.61,27.09,23.41,23.41,35.11,59.19,35.11,107.35,0,37.01-6.19,66.72-18.56,89.12-12.37,22.41-30.05,36.28-53.01,41.64l94.97,251.15h-70.56l-94.64-252.82v252.82h-69.56v-516.34ZM1362.75,1450.77c26.97,0,46.03-6.24,57.19-18.73,11.15-12.48,16.72-33.55,16.72-63.21,0-16.05-1.17-29.76-3.51-41.13-2.34-11.37-6.02-20.62-11.04-27.76-5.02-7.13-11.49-12.37-19.4-15.72-7.92-3.34-17.34-5.02-28.26-5.02h-11.7v171.56Z"/>
    <path d="M1581.8,1222.02h69.56v516.34h-69.56v-516.34Z"/>
    <path d="M1989.46,1492.9c0,91.19-10.15,155.95-30.43,194.3-20.29,38.35-54.29,57.52-102,57.52-50.16,0-85.5-20.62-106.01-61.87-20.29-40.35-30.43-112.03-30.43-215.03,0-91.85,10.03-156.84,30.1-194.97,20.28-38.34,54.62-57.52,103-57.52,43.25,0,75.35,14.83,96.31,44.48,13.82,19.85,23.85,48.05,30.1,84.61,6.24,33.89,9.36,83.39,9.36,148.48ZM1916.55,1500.26c0-89.4-4.01-148.7-12.04-177.91-8.03-29.43-24.41-44.14-49.16-44.14s-41.25,13.49-49.49,40.46c-8.03,27.2-12.04,81.82-12.04,163.87,0,75.58,4.23,127.97,12.71,157.18,8.69,27.65,24.97,41.47,48.83,41.47s39.46-12.93,48.16-38.79c8.69-25.64,13.04-73.01,13.04-142.13Z"/>
    <path d="M2058.35,1222.02h91.63c44.14,0,76.25,11.15,96.31,33.44,20.07,22.52,30.1,58.19,30.1,107.01,0,68.67-20.18,113.03-60.53,133.1-20.29,9.14-49.61,13.71-87.95,13.71v229.08h-69.56v-516.34ZM2127.9,1449.76c28.76,0,48.6-5.79,59.53-17.39,11.15-11.81,16.72-32.77,16.72-62.87s-5.35-53.28-16.05-67.55c-10.7-14.26-27.54-21.4-50.5-21.4h-9.7v169.22Z"/>
    <path d="M2329.89,1222.02h69.56v201.99h102v-201.99h69.56v516.34h-69.56v-255.5h-102v255.5h-69.56v-516.34Z"/>
    <path d="M2724.17,1222.02h54.18l110.69,516.34h-68.89l-19.4-100.66h-102.33l-19.73,100.66h-66.88l112.36-516.34ZM2790.72,1583.86l-15.38-82.27c-10.26-55.96-18.62-115.71-25.08-179.25-3.12,30.99-7.14,62.37-12.04,94.14-4.91,31.77-10.7,65.49-17.39,101.16l-12.71,66.21h82.6Z"/>
    <path d="M3051.57,1466.82h126.41v20.07c0,100.55-8.81,168.44-26.42,203.66-17.39,36.12-49.94,54.18-97.65,54.18s-84.39-20.07-105.34-60.2c-20.73-40.13-31.1-107.57-31.1-202.32,0-108.35,11.37-180.47,34.11-216.37,21.4-33.66,54.29-50.5,98.65-50.5,33.89,0,60.31,8.14,79.26,24.41,19.17,16.5,34.11,43.59,44.81,81.26l-64.88,27.09c-2.9-13.6-6.13-25.02-9.7-34.28-3.57-9.25-7.47-16.44-11.7-21.57-8.48-10.48-21.18-15.72-38.12-15.72-23.19,0-39.02,14.27-47.49,42.81-8.48,29.88-12.71,83.5-12.71,160.86s4.35,131.21,13.04,158.85c8.69,27.65,25.08,41.47,49.16,41.47,22.07,0,37.56-9.81,46.48-29.43,9.14-20.95,13.71-54.62,13.71-100.99v-24.41h-60.53v-58.86Z"/>
    <path d="M3247.2,1222.02h184.93v58.86h-115.37v163.53h102.33v58.86h-102.33v176.24h115.37v58.86h-184.93v-516.34Z"/>
  </g>
  <g class="cls-13">
    <path class="cls-9" d="M1,1813.02h94.31c73.79,0,110.69,45.82,110.69,137.45,0,35-4.8,60.98-14.38,77.92-9.59,16.95-26.53,29.76-50.83,38.46,27.87,11.15,46.93,25.42,57.19,42.81,10.48,17.17,15.72,43.03,15.72,77.59,0,94.76-40.58,142.13-121.73,142.13H1v-516.34ZM66.55,2040.43c26.97,0,45.7-6.24,56.18-18.73,10.48-13.15,15.72-36.23,15.72-69.22,0-55.73-20.07-83.6-60.2-83.6h-8.36c-1.79,0-2.9.12-3.34.33v171.22ZM66.55,2269.84c28.54,0,48.27-6.13,59.19-18.39,10.92-12.26,16.39-34.45,16.39-66.55s-5.69-56.07-17.06-69.22c-11.15-13.38-30.66-20.07-58.52-20.07v174.23Z"/>
    <path class="cls-9" d="M358.49,1813.02h54.18l110.69,516.34h-68.89l-19.4-100.66h-102.33l-19.73,100.66h-66.88l112.36-516.34ZM425.04,2174.86l-15.38-82.27c-10.26-55.96-18.62-115.71-25.08-179.25-3.12,30.99-7.14,62.37-12.04,94.14-4.91,31.77-10.7,65.49-17.39,101.16l-12.71,66.21h82.6Z"/>
    <path class="cls-9" d="M762.14,1821.38v62.54c-17.84-8.69-32.77-13.04-44.81-13.04-16.5,0-30.66,4.07-42.47,12.21-11.82,8.14-21.57,20.68-29.26,37.62-7.69,16.95-13.38,38.41-17.06,64.38-3.68,25.97-5.52,56.68-5.52,92.13,0,127.53,32.66,191.29,97.98,191.29,11.37,0,25.08-3.56,41.13-10.7v63.87c-16.72,9.36-35.45,14.05-56.18,14.05-104.56,0-156.84-85.39-156.84-256.16,0-92.3,12.76-160.97,38.29-206,25.53-45.03,64.6-67.55,117.21-67.55,19.4,0,38.57,5.13,57.52,15.38Z"/>
    <path class="cls-9" d="M779.53,1813.02h226.4v60.86h-77.92v455.48h-68.22v-455.48h-80.26v-60.86Z"/>
    <path class="cls-9" d="M1044.39,1813.02h184.93v58.86h-115.37v163.53h102.33v58.86h-102.33v176.24h115.37v58.86h-184.93v-516.34Z"/>
    <path class="cls-9" d="M1293.19,1813.02h91.63c37.9,0,66.1,9.03,84.61,27.09,23.41,23.41,35.11,59.19,35.11,107.35,0,37.01-6.19,66.72-18.56,89.12-12.37,22.41-30.05,36.28-53.01,41.64l94.97,251.15h-70.56l-94.64-252.82v252.82h-69.56v-516.34ZM1362.75,2041.77c26.97,0,46.03-6.24,57.19-18.73,11.15-12.48,16.72-33.55,16.72-63.21,0-16.05-1.17-29.76-3.51-41.13-2.34-11.37-6.02-20.62-11.04-27.76-5.02-7.13-11.49-12.37-19.4-15.72-7.92-3.34-17.34-5.02-28.26-5.02h-11.7v171.56Z"/>
    <path class="cls-9" d="M1581.8,1813.02h69.56v516.34h-69.56v-516.34Z"/>
    <path class="cls-9" d="M1989.46,2083.9c0,91.19-10.15,155.95-30.43,194.3-20.29,38.35-54.29,57.52-102,57.52-50.16,0-85.5-20.62-106.01-61.87-20.29-40.35-30.43-112.03-30.43-215.03,0-91.85,10.03-156.84,30.1-194.97,20.28-38.34,54.62-57.52,103-57.52,43.25,0,75.35,14.83,96.31,44.48,13.82,19.85,23.85,48.05,30.1,84.61,6.24,33.89,9.36,83.39,9.36,148.48ZM1916.55,2091.26c0-89.4-4.01-148.7-12.04-177.91-8.03-29.43-24.41-44.14-49.16-44.14s-41.25,13.49-49.49,40.46c-8.03,27.2-12.04,81.82-12.04,163.87,0,75.58,4.23,127.97,12.71,157.18,8.69,27.65,24.97,41.47,48.83,41.47s39.46-12.93,48.16-38.79c8.69-25.64,13.04-73.01,13.04-142.13Z"/>
    <path class="cls-9" d="M2058.35,1813.02h91.63c44.14,0,76.25,11.15,96.31,33.44,20.07,22.52,30.1,58.19,30.1,107.01,0,68.67-20.18,113.03-60.53,133.1-20.29,9.14-49.61,13.71-87.95,13.71v229.08h-69.56v-516.34ZM2127.9,2040.76c28.76,0,48.6-5.79,59.53-17.39,11.15-11.81,16.72-32.77,16.72-62.87s-5.35-53.28-16.05-67.55c-10.7-14.26-27.54-21.4-50.5-21.4h-9.7v169.22Z"/>
    <path class="cls-9" d="M2329.89,1813.02h69.56v201.99h102v-201.99h69.56v516.34h-69.56v-255.5h-102v255.5h-69.56v-516.34Z"/>
    <path class="cls-9" d="M2724.17,1813.02h54.18l110.69,516.34h-68.89l-19.4-100.66h-102.33l-19.73,100.66h-66.88l112.36-516.34ZM2790.72,2174.86l-15.38-82.27c-10.26-55.96-18.62-115.71-25.08-179.25-3.12,30.99-7.14,62.37-12.04,94.14-4.91,31.77-10.7,65.49-17.39,101.16l-12.71,66.21h82.6Z"/>
    <path class="cls-9" d="M3051.57,2057.82h126.41v20.07c0,100.55-8.81,168.44-26.42,203.66-17.39,36.12-49.94,54.18-97.65,54.18s-84.39-20.07-105.34-60.2c-20.73-40.13-31.1-107.57-31.1-202.32,0-108.35,11.37-180.47,34.11-216.37,21.4-33.66,54.29-50.5,98.65-50.5,33.89,0,60.31,8.14,79.26,24.41,19.17,16.5,34.11,43.59,44.81,81.26l-64.88,27.09c-2.9-13.6-6.13-25.02-9.7-34.28-3.57-9.25-7.47-16.44-11.7-21.57-8.48-10.48-21.18-15.72-38.12-15.72-23.19,0-39.02,14.27-47.49,42.81-8.48,29.88-12.71,83.5-12.71,160.86s4.35,131.21,13.04,158.85c8.69,27.65,25.08,41.47,49.16,41.47,22.07,0,37.56-9.81,46.48-29.43,9.14-20.95,13.71-54.62,13.71-100.99v-24.41h-60.53v-58.86Z"/>
    <path class="cls-9" d="M3247.2,1813.02h184.93v58.86h-115.37v163.53h102.33v58.86h-102.33v176.24h115.37v58.86h-184.93v-516.34Z"/>
  </g>
  <g class="cls-13">
    <path class="cls-14" d="M1,2437.02h94.31c73.79,0,110.69,45.82,110.69,137.45,0,35-4.8,60.98-14.38,77.92-9.59,16.95-26.53,29.76-50.83,38.46,27.87,11.15,46.93,25.42,57.19,42.81,10.48,17.17,15.72,43.03,15.72,77.59,0,94.76-40.58,142.13-121.73,142.13H1v-516.34ZM66.55,2664.43c26.97,0,45.7-6.24,56.18-18.73,10.48-13.15,15.72-36.23,15.72-69.22,0-55.73-20.07-83.6-60.2-83.6h-8.36c-1.79,0-2.9.12-3.34.33v171.22ZM66.55,2893.84c28.54,0,48.27-6.13,59.19-18.39,10.92-12.26,16.39-34.45,16.39-66.55s-5.69-56.07-17.06-69.22c-11.15-13.38-30.66-20.07-58.52-20.07v174.23Z"/>
    <path class="cls-14" d="M358.49,2437.02h54.18l110.69,516.34h-68.89l-19.4-100.66h-102.33l-19.73,100.66h-66.88l112.36-516.34ZM425.04,2798.86l-15.38-82.27c-10.26-55.96-18.62-115.71-25.08-179.25-3.12,30.99-7.14,62.37-12.04,94.14-4.91,31.77-10.7,65.49-17.39,101.16l-12.71,66.21h82.6Z"/>
    <path class="cls-14" d="M762.14,2445.38v62.54c-17.84-8.69-32.77-13.04-44.81-13.04-16.5,0-30.66,4.07-42.47,12.21-11.82,8.14-21.57,20.68-29.26,37.62-7.69,16.95-13.38,38.41-17.06,64.38-3.68,25.97-5.52,56.68-5.52,92.13,0,127.53,32.66,191.29,97.98,191.29,11.37,0,25.08-3.56,41.13-10.7v63.87c-16.72,9.36-35.45,14.05-56.18,14.05-104.56,0-156.84-85.39-156.84-256.16,0-92.3,12.76-160.97,38.29-206,25.53-45.03,64.6-67.55,117.21-67.55,19.4,0,38.57,5.13,57.52,15.38Z"/>
    <path class="cls-14" d="M779.53,2437.02h226.4v60.86h-77.92v455.48h-68.22v-455.48h-80.26v-60.86Z"/>
    <path class="cls-14" d="M1044.39,2437.02h184.93v58.86h-115.37v163.53h102.33v58.86h-102.33v176.24h115.37v58.86h-184.93v-516.34Z"/>
    <path class="cls-14" d="M1293.19,2437.02h91.63c37.9,0,66.1,9.03,84.61,27.09,23.41,23.41,35.11,59.19,35.11,107.35,0,37.01-6.19,66.72-18.56,89.12-12.37,22.41-30.05,36.28-53.01,41.64l94.97,251.15h-70.56l-94.64-252.82v252.82h-69.56v-516.34ZM1362.75,2665.77c26.97,0,46.03-6.24,57.19-18.73,11.15-12.48,16.72-33.55,16.72-63.21,0-16.05-1.17-29.76-3.51-41.13-2.34-11.37-6.02-20.62-11.04-27.76-5.02-7.13-11.49-12.37-19.4-15.72-7.92-3.34-17.34-5.02-28.26-5.02h-11.7v171.56Z"/>
    <path class="cls-14" d="M1581.8,2437.02h69.56v516.34h-69.56v-516.34Z"/>
    <path class="cls-14" d="M1989.46,2707.9c0,91.19-10.15,155.95-30.43,194.3-20.29,38.35-54.29,57.52-102,57.52-50.16,0-85.5-20.62-106.01-61.87-20.29-40.35-30.43-112.03-30.43-215.03,0-91.85,10.03-156.84,30.1-194.97,20.28-38.34,54.62-57.52,103-57.52,43.25,0,75.35,14.83,96.31,44.48,13.82,19.85,23.85,48.05,30.1,84.61,6.24,33.89,9.36,83.39,9.36,148.48ZM1916.55,2715.26c0-89.4-4.01-148.7-12.04-177.91-8.03-29.43-24.41-44.14-49.16-44.14s-41.25,13.49-49.49,40.46c-8.03,27.2-12.04,81.82-12.04,163.87,0,75.58,4.23,127.97,12.71,157.18,8.69,27.65,24.97,41.47,48.83,41.47s39.46-12.93,48.16-38.79c8.69-25.64,13.04-73.01,13.04-142.13Z"/>
    <path class="cls-14" d="M2058.35,2437.02h91.63c44.14,0,76.25,11.15,96.31,33.44,20.07,22.52,30.1,58.19,30.1,107.01,0,68.67-20.18,113.03-60.53,133.1-20.29,9.14-49.61,13.71-87.95,13.71v229.08h-69.56v-516.34ZM2127.9,2664.76c28.76,0,48.6-5.79,59.53-17.39,11.15-11.81,16.72-32.77,16.72-62.87s-5.35-53.28-16.05-67.55c-10.7-14.26-27.54-21.4-50.5-21.4h-9.7v169.22Z"/>
    <path class="cls-14" d="M2329.89,2437.02h69.56v201.99h102v-201.99h69.56v516.34h-69.56v-255.5h-102v255.5h-69.56v-516.34Z"/>
    <path class="cls-14" d="M2724.17,2437.02h54.18l110.69,516.34h-68.89l-19.4-100.66h-102.33l-19.73,100.66h-66.88l112.36-516.34ZM2790.72,2798.86l-15.38-82.27c-10.26-55.96-18.62-115.71-25.08-179.25-3.12,30.99-7.14,62.37-12.04,94.14-4.91,31.77-10.7,65.49-17.39,101.16l-12.71,66.21h82.6Z"/>
    <path class="cls-14" d="M3051.57,2681.82h126.41v20.07c0,100.55-8.81,168.44-26.42,203.66-17.39,36.12-49.94,54.18-97.65,54.18s-84.39-20.07-105.34-60.2c-20.73-40.13-31.1-107.57-31.1-202.32,0-108.35,11.37-180.47,34.11-216.37,21.4-33.66,54.29-50.5,98.65-50.5,33.89,0,60.31,8.14,79.26,24.41,19.17,16.5,34.11,43.59,44.81,81.26l-64.88,27.09c-2.9-13.6-6.13-25.02-9.7-34.28-3.57-9.25-7.47-16.44-11.7-21.57-8.48-10.48-21.18-15.72-38.12-15.72-23.19,0-39.02,14.27-47.49,42.81-8.48,29.88-12.71,83.5-12.71,160.86s4.35,131.21,13.04,158.85c8.69,27.65,25.08,41.47,49.16,41.47,22.07,0,37.56-9.81,46.48-29.43,9.14-20.95,13.71-54.62,13.71-100.99v-24.41h-60.53v-58.86Z"/>
    <path class="cls-14" d="M3247.2,2437.02h184.93v58.86h-115.37v163.53h102.33v58.86h-102.33v176.24h115.37v58.86h-184.93v-516.34Z"/>
  </g>
  <g class="cls-13">
    <path class="cls-12" d="M1,3038.02h94.31c73.79,0,110.69,45.82,110.69,137.45,0,35-4.8,60.98-14.38,77.92-9.59,16.95-26.53,29.76-50.83,38.46,27.87,11.15,46.93,25.42,57.19,42.81,10.48,17.17,15.72,43.03,15.72,77.59,0,94.76-40.58,142.13-121.73,142.13H1v-516.34ZM66.55,3265.43c26.97,0,45.7-6.24,56.18-18.73,10.48-13.15,15.72-36.23,15.72-69.22,0-55.73-20.07-83.6-60.2-83.6h-8.36c-1.79,0-2.9.12-3.34.33v171.22ZM66.55,3494.84c28.54,0,48.27-6.13,59.19-18.39,10.92-12.26,16.39-34.45,16.39-66.55s-5.69-56.07-17.06-69.22c-11.15-13.38-30.66-20.07-58.52-20.07v174.23Z"/>
    <path class="cls-12" d="M358.49,3038.02h54.18l110.69,516.34h-68.89l-19.4-100.66h-102.33l-19.73,100.66h-66.88l112.36-516.34ZM425.04,3399.86l-15.38-82.27c-10.26-55.96-18.62-115.71-25.08-179.25-3.12,30.99-7.14,62.37-12.04,94.14-4.91,31.77-10.7,65.49-17.39,101.16l-12.71,66.21h82.6Z"/>
    <path class="cls-12" d="M762.14,3046.38v62.54c-17.84-8.69-32.77-13.04-44.81-13.04-16.5,0-30.66,4.07-42.47,12.21-11.82,8.14-21.57,20.68-29.26,37.62-7.69,16.95-13.38,38.41-17.06,64.38-3.68,25.97-5.52,56.68-5.52,92.13,0,127.53,32.66,191.29,97.98,191.29,11.37,0,25.08-3.56,41.13-10.7v63.87c-16.72,9.36-35.45,14.05-56.18,14.05-104.56,0-156.84-85.39-156.84-256.16,0-92.3,12.76-160.97,38.29-206,25.53-45.03,64.6-67.55,117.21-67.55,19.4,0,38.57,5.13,57.52,15.38Z"/>
    <path class="cls-12" d="M779.53,3038.02h226.4v60.86h-77.92v455.48h-68.22v-455.48h-80.26v-60.86Z"/>
    <path class="cls-12" d="M1044.39,3038.02h184.93v58.86h-115.37v163.53h102.33v58.86h-102.33v176.24h115.37v58.86h-184.93v-516.34Z"/>
    <path class="cls-12" d="M1293.19,3038.02h91.63c37.9,0,66.1,9.03,84.61,27.09,23.41,23.41,35.11,59.19,35.11,107.35,0,37.01-6.19,66.72-18.56,89.12-12.37,22.41-30.05,36.28-53.01,41.64l94.97,251.15h-70.56l-94.64-252.82v252.82h-69.56v-516.34ZM1362.75,3266.77c26.97,0,46.03-6.24,57.19-18.73,11.15-12.48,16.72-33.55,16.72-63.21,0-16.05-1.17-29.76-3.51-41.13-2.34-11.37-6.02-20.62-11.04-27.76-5.02-7.13-11.49-12.37-19.4-15.72-7.92-3.34-17.34-5.02-28.26-5.02h-11.7v171.56Z"/>
    <path class="cls-12" d="M1581.8,3038.02h69.56v516.34h-69.56v-516.34Z"/>
    <path class="cls-12" d="M1989.46,3308.9c0,91.19-10.15,155.95-30.43,194.3-20.29,38.35-54.29,57.52-102,57.52-50.16,0-85.5-20.62-106.01-61.87-20.29-40.35-30.43-112.03-30.43-215.03,0-91.85,10.03-156.84,30.1-194.97,20.28-38.34,54.62-57.52,103-57.52,43.25,0,75.35,14.83,96.31,44.48,13.82,19.85,23.85,48.05,30.1,84.61,6.24,33.89,9.36,83.39,9.36,148.48ZM1916.55,3316.26c0-89.4-4.01-148.7-12.04-177.91-8.03-29.43-24.41-44.14-49.16-44.14s-41.25,13.49-49.49,40.46c-8.03,27.2-12.04,81.82-12.04,163.87,0,75.58,4.23,127.97,12.71,157.18,8.69,27.65,24.97,41.47,48.83,41.47s39.46-12.93,48.16-38.79c8.69-25.64,13.04-73.01,13.04-142.13Z"/>
    <path class="cls-12" d="M2058.35,3038.02h91.63c44.14,0,76.25,11.15,96.31,33.44,20.07,22.52,30.1,58.19,30.1,107.01,0,68.67-20.18,113.03-60.53,133.1-20.29,9.14-49.61,13.71-87.95,13.71v229.08h-69.56v-516.34ZM2127.9,3265.76c28.76,0,48.6-5.79,59.53-17.39,11.15-11.81,16.72-32.77,16.72-62.87s-5.35-53.28-16.05-67.55c-10.7-14.26-27.54-21.4-50.5-21.4h-9.7v169.22Z"/>
    <path class="cls-12" d="M2329.89,3038.02h69.56v201.99h102v-201.99h69.56v516.34h-69.56v-255.5h-102v255.5h-69.56v-516.34Z"/>
    <path class="cls-12" d="M2724.17,3038.02h54.18l110.69,516.34h-68.89l-19.4-100.66h-102.33l-19.73,100.66h-66.88l112.36-516.34ZM2790.72,3399.86l-15.38-82.27c-10.26-55.96-18.62-115.71-25.08-179.25-3.12,30.99-7.14,62.37-12.04,94.14-4.91,31.77-10.7,65.49-17.39,101.16l-12.71,66.21h82.6Z"/>
    <path class="cls-12" d="M3051.57,3282.82h126.41v20.07c0,100.55-8.81,168.44-26.42,203.66-17.39,36.12-49.94,54.18-97.65,54.18s-84.39-20.07-105.34-60.2c-20.73-40.13-31.1-107.57-31.1-202.32,0-108.35,11.37-180.47,34.11-216.37,21.4-33.66,54.29-50.5,98.65-50.5,33.89,0,60.31,8.14,79.26,24.41,19.17,16.5,34.11,43.59,44.81,81.26l-64.88,27.09c-2.9-13.6-6.13-25.02-9.7-34.28-3.57-9.25-7.47-16.44-11.7-21.57-8.48-10.48-21.18-15.72-38.12-15.72-23.19,0-39.02,14.27-47.49,42.81-8.48,29.88-12.71,83.5-12.71,160.86s4.35,131.21,13.04,158.85c8.69,27.65,25.08,41.47,49.16,41.47,22.07,0,37.56-9.81,46.48-29.43,9.14-20.95,13.71-54.62,13.71-100.99v-24.41h-60.53v-58.86Z"/>
    <path class="cls-12" d="M3247.2,3038.02h184.93v58.86h-115.37v163.53h102.33v58.86h-102.33v176.24h115.37v58.86h-184.93v-516.34Z"/>
  </g>
  <g class="cls-13">
    <path class="cls-10" d="M0,7.02h94.31c73.79,0,110.69,45.82,110.69,137.45,0,35-4.8,60.98-14.38,77.92-9.59,16.95-26.53,29.76-50.83,38.46,27.87,11.15,46.93,25.42,57.19,42.81,10.48,17.17,15.72,43.03,15.72,77.59,0,94.76-40.58,142.13-121.73,142.13H0V7.02ZM65.55,234.43c26.97,0,45.7-6.24,56.18-18.73,10.48-13.15,15.72-36.23,15.72-69.22,0-55.73-20.07-83.6-60.2-83.6h-8.36c-1.79,0-2.9.12-3.34.33v171.22ZM65.55,463.84c28.54,0,48.27-6.13,59.19-18.39,10.92-12.26,16.39-34.45,16.39-66.55s-5.69-56.07-17.06-69.22c-11.15-13.38-30.66-20.07-58.52-20.07v174.23Z"/>
    <path class="cls-10" d="M357.49,7.02h54.18l110.69,516.34h-68.89l-19.4-100.66h-102.33l-19.73,100.66h-66.88L357.49,7.02ZM424.04,368.86l-15.38-82.27c-10.26-55.96-18.62-115.71-25.08-179.25-3.12,30.99-7.14,62.37-12.04,94.14-4.91,31.77-10.7,65.49-17.39,101.16l-12.71,66.21h82.6Z"/>
    <path class="cls-10" d="M761.14,15.38v62.54c-17.84-8.69-32.77-13.04-44.81-13.04-16.5,0-30.66,4.07-42.47,12.21-11.82,8.14-21.57,20.68-29.26,37.62-7.69,16.95-13.38,38.41-17.06,64.38-3.68,25.97-5.52,56.68-5.52,92.13,0,127.53,32.66,191.29,97.98,191.29,11.37,0,25.08-3.56,41.13-10.7v63.87c-16.72,9.36-35.45,14.05-56.18,14.05-104.56,0-156.84-85.39-156.84-256.16,0-92.3,12.76-160.97,38.29-206C611.93,22.52,651,0,703.62,0c19.4,0,38.57,5.13,57.52,15.38Z"/>
    <path class="cls-10" d="M778.53,7.02h226.4v60.86h-77.92v455.48h-68.22V67.89h-80.26V7.02Z"/>
    <path class="cls-10" d="M1043.39,7.02h184.93v58.86h-115.37v163.53h102.33v58.86h-102.33v176.24h115.37v58.86h-184.93V7.02Z"/>
    <path class="cls-10" d="M1292.19,7.02h91.63c37.9,0,66.1,9.03,84.61,27.09,23.41,23.41,35.11,59.19,35.11,107.35,0,37.01-6.19,66.72-18.56,89.12-12.37,22.41-30.05,36.28-53.01,41.64l94.97,251.15h-70.56l-94.64-252.82v252.82h-69.56V7.02ZM1361.75,235.77c26.97,0,46.03-6.24,57.19-18.73,11.15-12.48,16.72-33.55,16.72-63.21,0-16.05-1.17-29.76-3.51-41.13s-6.02-20.62-11.04-27.76c-5.02-7.13-11.49-12.37-19.4-15.72-7.92-3.34-17.34-5.02-28.26-5.02h-11.7v171.56Z"/>
    <path class="cls-10" d="M1580.8,7.02h69.56v516.34h-69.56V7.02Z"/>
    <path class="cls-10" d="M1988.46,277.9c0,91.19-10.15,155.95-30.43,194.3-20.29,38.35-54.29,57.52-102,57.52-50.16,0-85.5-20.62-106.01-61.87-20.29-40.35-30.43-112.03-30.43-215.03,0-91.85,10.03-156.84,30.1-194.97,20.28-38.34,54.62-57.52,103-57.52,43.25,0,75.35,14.83,96.31,44.48,13.82,19.85,23.85,48.05,30.1,84.61,6.24,33.89,9.36,83.39,9.36,148.48ZM1915.55,285.26c0-89.4-4.01-148.7-12.04-177.91-8.03-29.43-24.41-44.14-49.16-44.14s-41.25,13.49-49.49,40.46c-8.03,27.2-12.04,81.82-12.04,163.87,0,75.58,4.23,127.97,12.71,157.18,8.69,27.65,24.97,41.47,48.83,41.47s39.46-12.93,48.16-38.79c8.69-25.64,13.04-73.01,13.04-142.13Z"/>
    <path class="cls-10" d="M2057.35,7.02h91.63c44.14,0,76.25,11.15,96.31,33.44,20.07,22.52,30.1,58.19,30.1,107.01,0,68.67-20.18,113.03-60.53,133.1-20.29,9.14-49.61,13.71-87.95,13.71v229.08h-69.56V7.02ZM2126.9,234.76c28.76,0,48.6-5.79,59.53-17.39,11.15-11.81,16.72-32.77,16.72-62.87s-5.35-53.28-16.05-67.55c-10.7-14.26-27.54-21.4-50.5-21.4h-9.7v169.22Z"/>
    <path class="cls-10" d="M2328.89,7.02h69.56v201.99h102V7.02h69.56v516.34h-69.56v-255.5h-102v255.5h-69.56V7.02Z"/>
    <path class="cls-10" d="M2723.17,7.02h54.18l110.69,516.34h-68.89l-19.4-100.66h-102.33l-19.73,100.66h-66.88L2723.17,7.02ZM2789.72,368.86l-15.38-82.27c-10.26-55.96-18.62-115.71-25.08-179.25-3.12,30.99-7.14,62.37-12.04,94.14-4.91,31.77-10.7,65.49-17.39,101.16l-12.71,66.21h82.6Z"/>
    <path class="cls-10" d="M3050.57,251.82h126.41v20.07c0,100.55-8.81,168.44-26.42,203.66-17.39,36.12-49.94,54.18-97.65,54.18s-84.39-20.07-105.34-60.2c-20.73-40.13-31.1-107.57-31.1-202.32,0-108.35,11.37-180.47,34.11-216.37,21.4-33.66,54.29-50.5,98.65-50.5,33.89,0,60.31,8.14,79.26,24.41,19.17,16.5,34.11,43.59,44.81,81.26l-64.88,27.09c-2.9-13.6-6.13-25.02-9.7-34.28-3.57-9.25-7.47-16.44-11.7-21.57-8.48-10.48-21.18-15.72-38.12-15.72-23.19,0-39.02,14.27-47.49,42.81-8.48,29.88-12.71,83.5-12.71,160.86s4.35,131.21,13.04,158.85c8.69,27.65,25.08,41.47,49.16,41.47,22.07,0,37.56-9.81,46.48-29.43,9.14-20.95,13.71-54.62,13.71-100.99v-24.41h-60.53v-58.86Z"/>
    <path class="cls-10" d="M3246.2,7.02h184.93v58.86h-115.37v163.53h102.33v58.86h-102.33v176.24h115.37v58.86h-184.93V7.02Z"/>
  </g>
  <g class="cls-13">
    <path class="cls-11" d="M0,631.02h94.31c73.79,0,110.69,45.82,110.69,137.45,0,35-4.8,60.98-14.38,77.92-9.59,16.95-26.53,29.76-50.83,38.46,27.87,11.15,46.93,25.42,57.19,42.81,10.48,17.17,15.72,43.03,15.72,77.59,0,94.76-40.58,142.13-121.73,142.13H0v-516.34ZM65.55,858.43c26.97,0,45.7-6.24,56.18-18.73,10.48-13.15,15.72-36.23,15.72-69.22,0-55.73-20.07-83.6-60.2-83.6h-8.36c-1.79,0-2.9.12-3.34.33v171.22ZM65.55,1087.84c28.54,0,48.27-6.13,59.19-18.39,10.92-12.26,16.39-34.45,16.39-66.55s-5.69-56.07-17.06-69.22c-11.15-13.38-30.66-20.07-58.52-20.07v174.23Z"/>
    <path class="cls-11" d="M357.49,631.02h54.18l110.69,516.34h-68.89l-19.4-100.66h-102.33l-19.73,100.66h-66.88l112.36-516.34ZM424.04,992.86l-15.38-82.27c-10.26-55.96-18.62-115.71-25.08-179.25-3.12,30.99-7.14,62.37-12.04,94.14-4.91,31.77-10.7,65.49-17.39,101.16l-12.71,66.21h82.6Z"/>
    <path class="cls-11" d="M761.14,639.38v62.54c-17.84-8.69-32.77-13.04-44.81-13.04-16.5,0-30.66,4.07-42.47,12.21-11.82,8.14-21.57,20.68-29.26,37.62-7.69,16.95-13.38,38.41-17.06,64.38-3.68,25.97-5.52,56.68-5.52,92.13,0,127.53,32.66,191.29,97.98,191.29,11.37,0,25.08-3.56,41.13-10.7v63.87c-16.72,9.36-35.45,14.05-56.18,14.05-104.56,0-156.84-85.39-156.84-256.16,0-92.3,12.76-160.97,38.29-206,25.53-45.03,64.6-67.55,117.21-67.55,19.4,0,38.57,5.13,57.52,15.38Z"/>
    <path class="cls-11" d="M778.53,631.02h226.4v60.86h-77.92v455.48h-68.22v-455.48h-80.26v-60.86Z"/>
    <path class="cls-11" d="M1043.39,631.02h184.93v58.86h-115.37v163.53h102.33v58.86h-102.33v176.24h115.37v58.86h-184.93v-516.34Z"/>
    <path class="cls-11" d="M1292.19,631.02h91.63c37.9,0,66.1,9.03,84.61,27.09,23.41,23.41,35.11,59.19,35.11,107.35,0,37.01-6.19,66.72-18.56,89.12-12.37,22.41-30.05,36.28-53.01,41.64l94.97,251.15h-70.56l-94.64-252.82v252.82h-69.56v-516.34ZM1361.75,859.77c26.97,0,46.03-6.24,57.19-18.73,11.15-12.48,16.72-33.55,16.72-63.21,0-16.05-1.17-29.76-3.51-41.13s-6.02-20.62-11.04-27.76c-5.02-7.13-11.49-12.37-19.4-15.72-7.92-3.34-17.34-5.02-28.26-5.02h-11.7v171.56Z"/>
    <path class="cls-11" d="M1580.8,631.02h69.56v516.34h-69.56v-516.34Z"/>
    <path class="cls-11" d="M1988.46,901.9c0,91.19-10.15,155.95-30.43,194.3-20.29,38.35-54.29,57.52-102,57.52-50.16,0-85.5-20.62-106.01-61.87-20.29-40.35-30.43-112.03-30.43-215.03,0-91.85,10.03-156.84,30.1-194.97,20.28-38.34,54.62-57.52,103-57.52,43.25,0,75.35,14.83,96.31,44.48,13.82,19.85,23.85,48.05,30.1,84.61,6.24,33.89,9.36,83.39,9.36,148.48ZM1915.55,909.26c0-89.4-4.01-148.7-12.04-177.91-8.03-29.43-24.41-44.14-49.16-44.14s-41.25,13.49-49.49,40.46c-8.03,27.2-12.04,81.82-12.04,163.87,0,75.58,4.23,127.97,12.71,157.18,8.69,27.65,24.97,41.47,48.83,41.47s39.46-12.93,48.16-38.79c8.69-25.64,13.04-73.01,13.04-142.13Z"/>
    <path class="cls-11" d="M2057.35,631.02h91.63c44.14,0,76.25,11.15,96.31,33.44,20.07,22.52,30.1,58.19,30.1,107.01,0,68.67-20.18,113.03-60.53,133.1-20.29,9.14-49.61,13.71-87.95,13.71v229.08h-69.56v-516.34ZM2126.9,858.76c28.76,0,48.6-5.79,59.53-17.39,11.15-11.81,16.72-32.77,16.72-62.87s-5.35-53.28-16.05-67.55c-10.7-14.26-27.54-21.4-50.5-21.4h-9.7v169.22Z"/>
    <path class="cls-11" d="M2328.89,631.02h69.56v201.99h102v-201.99h69.56v516.34h-69.56v-255.5h-102v255.5h-69.56v-516.34Z"/>
    <path class="cls-11" d="M2723.17,631.02h54.18l110.69,516.34h-68.89l-19.4-100.66h-102.33l-19.73,100.66h-66.88l112.36-516.34ZM2789.72,992.86l-15.38-82.27c-10.26-55.96-18.62-115.71-25.08-179.25-3.12,30.99-7.14,62.37-12.04,94.14-4.91,31.77-10.7,65.49-17.39,101.16l-12.71,66.21h82.6Z"/>
    <path class="cls-11" d="M3050.57,875.82h126.41v20.07c0,100.55-8.81,168.44-26.42,203.66-17.39,36.12-49.94,54.18-97.65,54.18s-84.39-20.07-105.34-60.2c-20.73-40.13-31.1-107.57-31.1-202.32,0-108.35,11.37-180.47,34.11-216.37,21.4-33.66,54.29-50.5,98.65-50.5,33.89,0,60.31,8.14,79.26,24.41,19.17,16.5,34.11,43.59,44.81,81.26l-64.88,27.09c-2.9-13.6-6.13-25.02-9.7-34.28-3.57-9.25-7.47-16.44-11.7-21.57-8.48-10.48-21.18-15.72-38.12-15.72-23.19,0-39.02,14.27-47.49,42.81-8.48,29.88-12.71,83.5-12.71,160.86s4.35,131.21,13.04,158.85c8.69,27.65,25.08,41.47,49.16,41.47,22.07,0,37.56-9.81,46.48-29.43,9.14-20.95,13.71-54.62,13.71-100.99v-24.41h-60.53v-58.86Z"/>
    <path class="cls-11" d="M3246.2,631.02h184.93v58.86h-115.37v163.53h102.33v58.86h-102.33v176.24h115.37v58.86h-184.93v-516.34Z"/>
  </g>
  <polyline class="cls-3" points="1834.7 1809.65 1834.7 2010.94 1902.42 2010.94 1902.42 1806.27"/>
  <polygon class="cls-4" points="1715.86 1303.27 1715.86 1690.81 1866.87 1841.82 1997.22 1711.47 1997.22 1303.27 1847.09 1153.14 1715.86 1303.27"/>
  <polygon class="cls-5" points="2042.54 2098.08 1895.87 2010.94 1873.58 2010.94 1863.7 2010.94 1841.41 2010.94 1694.74 2098.08 1667.14 2226.01 1863.7 2226.01 1873.58 2226.01 2070.14 2226.01 2042.54 2098.08"/>
  <polygon class="cls-1" points="1852.95 1357.1 1953.64 1456.01 1997.22 1303.27 1852.95 1357.1 1715.86 1303.27 1768.97 1456.01 1852.95 1357.1"/>
  <polyline class="cls-2" points="1997.22 1690.97 1953.64 1456.01 1861.9 1668.71 1997.22 1711.47 1861.9 1668.71 1715.86 1690.81 1768.97 1456.01 1861.9 1668.71"/>
  <polyline class="cls-6" points="1997.22 1476.74 1953.64 1456.01 1856.54 1497.48 1768.97 1456.01 1715.86 1483.49"/>
  <polyline class="cls-6" points="1791.01 1679.44 1866.87 1841.82 1847.09 1153.14 1782.06 1329.27"/>
  <line class="cls-7" x1="1866.87" y1="1841.82" x2="1942.37" y2="1694.13"/>
  <line class="cls-7" x1="1942.37" y1="1319.37" x2="1847.09" y2="1153.14"/>
  <polygon class="cls-8" points="1563.14 2226.01 1334.64 2417.01 1720.46 2774.49 1503.64 2394.01 1701.44 2226.01 1563.14 2226.01"/>
  <polygon class="cls-8" points="2153.96 2226.01 2382.46 2417.01 1996.64 2774.49 2213.46 2394.01 2015.66 2226.01 2153.96 2226.01"/>
  <polyline class="cls-8" points="1694.74 2098.08 1390.64 2159.01 1225.64 2559.01 1460.19 2226.01 1667.14 2226.01"/>
  <polyline class="cls-8" points="2044.54 2098.08 2348.64 2159.01 2513.64 2559.01 2279.09 2226.01 2072.14 2226.01"/>
  <line class="cls-8" x1="1834.7" y1="1881.39" x2="1902.42" y2="1881.39"/>
  <line class="cls-8" x1="1834.7" y1="1908.61" x2="1902.42" y2="1908.61"/>
  <line class="cls-8" x1="1834.7" y1="1936.26" x2="1902.42" y2="1936.26"/>
  <line class="cls-8" x1="1834.7" y1="1961.64" x2="1902.42" y2="1961.64"/>
  <line class="cls-8" x1="1834.7" y1="1853.16" x2="1902.42" y2="1853.16"/>
  <line class="cls-8" x1="1834.7" y1="1982.68" x2="1904.62" y2="1982.68"/>
  <polygon class="cls-8" points="1720.58 2226.01 1605.64 2409.01 1726.06 2579.99 1667.14 2403 1806.53 2230.71 1720.58 2226.01"/>
  <polygon class="cls-8" points="2002.58 2226.01 2117.53 2409.01 1997.11 2579.99 2056.03 2403 1916.64 2230.71 2002.58 2226.01"/>
</svg>