<?xml version="1.0" encoding="UTF-8"?>
<svg id="Layer_1" data-name="Layer 1" xmlns="http://www.w3.org/2000/svg" xmlns:xlink="http://www.w3.org/1999/xlink" viewBox="0 0 3844.5 3847">
  <defs>
    <style>
      .cls-1 {
        fill: #d00000;
      }

      .cls-1, .cls-2, .cls-3, .cls-4, .cls-5, .cls-6, .cls-7, .cls-8 {
        stroke: #000;
        stroke-miterlimit: 10;
      }

      .cls-1, .cls-3, .cls-4, .cls-5, .cls-6 {
        stroke-width: 7px;
      }

      .cls-9 {
        fill: #e6e6e6;
      }

      .cls-2 {
        stroke-width: 5px;
      }

      .cls-2, .cls-10 {
        fill: #666;
      }

      .cls-3 {
        fill: url(#linear-gradient-3);
      }

      .cls-4 {
        fill: url(#linear-gradient-2);
      }

      .cls-5 {
        fill: #22b573;
      }

      .cls-6 {
        fill: #fcd021;
      }

      .cls-11, .cls-7 {
        fill: #f2f2f2;
      }

      .cls-12 {
        fill: #b3b3b3;
      }

      .cls-7, .cls-8 {
        stroke-width: 3px;
      }

      .cls-8 {
        fill: url(#linear-gradient);
      }
    </style>
    <linearGradient id="linear-gradient" x1="624" y1="838.22" x2="624" y2="2959.96" gradientUnits="userSpaceOnUse">
      <stop offset="0" stop-color="#22b573"/>
      <stop offset="1" stop-color="#000"/>
    </linearGradient>
    <linearGradient id="linear-gradient-2" x1="1882.41" y1="825.09" x2="1856.32" y2="3451.17" gradientUnits="userSpaceOnUse">
      <stop offset="0" stop-color="#fcd021"/>
      <stop offset="1" stop-color="#000"/>
    </linearGradient>
    <linearGradient id="linear-gradient-3" x1="3164.72" y1="904.26" x2="3173.41" y2="3604.26" gradientUnits="userSpaceOnUse">
      <stop offset="0" stop-color="#d00000"/>
      <stop offset="1" stop-color="#000"/>
    </linearGradient>
  </defs>
  <rect class="cls-8" x="1.5" y="3" width="1245" height="3840"/>
  <rect class="cls-4" x="1249" y="3.5" width="1245" height="3840"/>
  <rect class="cls-3" x="2495" y="3.5" width="1346" height="3840"/>
  <g>
    <rect class="cls-12" x="296" y="1554.5" width="723" height="980" rx="120.13" ry="120.13"/>
    <path d="M898.87,1558c31.15,0,60.44,12.13,82.47,34.16,22.03,22.03,34.16,51.32,34.16,82.47v739.74c0,31.15-12.13,60.44-34.16,82.47-22.03,22.03-51.32,34.16-82.47,34.16h-482.74c-31.15,0-60.44-12.13-82.47-34.16-22.03-22.03-34.16-51.32-34.16-82.47v-739.74c0-31.15,12.13-60.44,34.16-82.47,22.03-22.03,51.32-34.16,82.47-34.16h482.74M898.87,1551h-482.74c-68.28,0-123.63,55.35-123.63,123.63v739.74c0,68.28,55.35,123.63,123.63,123.63h482.74c68.28,0,123.63-55.35,123.63-123.63v-739.74c0-68.28-55.35-123.63-123.63-123.63h0Z"/>
  </g>
  <g>
    <rect class="cls-12" x="1510" y="1554.5" width="723" height="980" rx="120.13" ry="120.13"/>
    <path d="M2112.87,1558c31.15,0,60.44,12.13,82.47,34.16,22.03,22.03,34.16,51.32,34.16,82.47v739.74c0,31.15-12.13,60.44-34.16,82.47-22.03,22.03-51.32,34.16-82.47,34.16h-482.74c-31.15,0-60.44-12.13-82.47-34.16-22.03-22.03-34.16-51.32-34.16-82.47v-739.74c0-31.15,12.13-60.44,34.16-82.47,22.03-22.03,51.32-34.16,82.47-34.16h482.74M2112.87,1551h-482.74c-68.28,0-123.63,55.35-123.63,123.63v739.74c0,68.28,55.35,123.63,123.63,123.63h482.74c68.28,0,123.63-55.35,123.63-123.63v-739.74c0-68.28-55.35-123.63-123.63-123.63h0Z"/>
  </g>
  <g>
    <rect class="cls-12" x="2772" y="1555.5" width="723" height="980" rx="120.13" ry="120.13"/>
    <path d="M3374.87,1559c31.15,0,60.44,12.13,82.47,34.16,22.03,22.03,34.16,51.32,34.16,82.47v739.74c0,31.15-12.13,60.44-34.16,82.47-22.03,22.03-51.32,34.16-82.47,34.16h-482.74c-31.15,0-60.44-12.13-82.47-34.16-22.03-22.03-34.16-51.32-34.16-82.47v-739.74c0-31.15,12.13-60.44,34.16-82.47,22.03-22.03,51.32-34.16,82.47-34.16h482.74M3374.87,1552h-482.74c-68.28,0-123.63,55.35-123.63,123.63v739.74c0,68.28,55.35,123.63,123.63,123.63h482.74c68.28,0,123.63-55.35,123.63-123.63v-739.74c0-68.28-55.35-123.63-123.63-123.63h0Z"/>
  </g>
  <g>
    <rect class="cls-10" x="316" y="1445.5" width="704" height="103"/>
    <path d="M1017.5,1448v98H318.5v-98h699M1022.5,1443H313.5v108h709v-108h0Z"/>
  </g>
  <path class="cls-11" d="M627.24,2847.54h-48.43l23.22-39.54h67.48v280.07h-42.26v-240.53Z"/>
  <path class="cls-11" d="M1860.43,3046.43h109.14v41.57h-196.83l101.74-123.19c9.99-12.27,18.38-22.9,25.15-31.89,6.77-8.98,11.93-16.51,15.47-22.59,7.21-11.89,10.82-22.59,10.82-32.08,0-13.67-4.81-25.12-14.43-34.36-9.62-9.23-21.51-13.86-35.68-13.86-29.61,0-46.57,17.53-50.87,52.58h-44.04c7.08-61.75,38.28-92.63,93.58-92.63,26.7,0,49.09,8.48,67.19,25.43,18.22,16.96,27.33,37.96,27.33,63.02,0,15.94-4.24,31.57-12.72,46.88-4.3,7.97-10.6,17.43-18.89,28.38-8.29,10.95-18.76,23.89-31.41,38.81l-45.55,53.91Z"/>
  <path class="cls-5" d="M292.5,1894.74s430,51.74,730,0v213.04s-360,129.78-730,0v-213.04Z"/>
  <path class="cls-6" d="M1506.5,1894.74s430,51.74,730,0v213.04s-360,129.78-730,0v-213.04Z"/>
  <path class="cls-1" d="M2769.5,1895.74s430,51.74,730,0v213.04s-360,129.78-730,0v-213.04Z"/>
  <line class="cls-2" x1="366.07" y1="1443" x2="366.07" y2="1551"/>
  <line class="cls-2" x1="456" y1="1443" x2="456" y2="1551"/>
  <line class="cls-2" x1="544" y1="1443" x2="544" y2="1551"/>
  <line class="cls-2" x1="623.07" y1="1443" x2="623.07" y2="1551"/>
  <line class="cls-2" x1="713" y1="1443" x2="713" y2="1551"/>
  <line class="cls-2" x1="801" y1="1443" x2="801" y2="1551"/>
  <line class="cls-2" x1="883" y1="1443" x2="883" y2="1551"/>
  <line class="cls-2" x1="971" y1="1443" x2="971" y2="1551"/>
  <g>
    <rect class="cls-10" x="1519" y="1445.5" width="704" height="103"/>
    <path d="M2220.5,1448v98h-699v-98h699M2225.5,1443h-709v108h709v-108h0Z"/>
  </g>
  <line class="cls-2" x1="1569.07" y1="1443" x2="1569.07" y2="1551"/>
  <line class="cls-2" x1="1659" y1="1443" x2="1659" y2="1551"/>
  <line class="cls-2" x1="1747" y1="1443" x2="1747" y2="1551"/>
  <line class="cls-2" x1="1826.07" y1="1443" x2="1826.07" y2="1551"/>
  <line class="cls-2" x1="1916" y1="1443" x2="1916" y2="1551"/>
  <line class="cls-2" x1="2004" y1="1443" x2="2004" y2="1551"/>
  <line class="cls-2" x1="2086" y1="1443" x2="2086" y2="1551"/>
  <line class="cls-2" x1="2174" y1="1443" x2="2174" y2="1551"/>
  <g>
    <rect class="cls-10" x="2782" y="1446.5" width="704" height="103"/>
    <path d="M3483.5,1449v98h-699v-98h699M3488.5,1444h-709v108h709v-108h0Z"/>
  </g>
  <line class="cls-2" x1="2832.07" y1="1444" x2="2832.07" y2="1552"/>
  <line class="cls-2" x1="2922" y1="1444" x2="2922" y2="1552"/>
  <line class="cls-2" x1="3010" y1="1444" x2="3010" y2="1552"/>
  <line class="cls-2" x1="3089.07" y1="1444" x2="3089.07" y2="1552"/>
  <line class="cls-2" x1="3179" y1="1444" x2="3179" y2="1552"/>
  <line class="cls-2" x1="3267" y1="1444" x2="3267" y2="1552"/>
  <line class="cls-2" x1="3349" y1="1444" x2="3349" y2="1552"/>
  <line class="cls-2" x1="3437" y1="1444" x2="3437" y2="1552"/>
  <rect class="cls-9" x="886.57" y="2181" width="101.01" height="314" rx="50.5" ry="50.5"/>
  <rect class="cls-9" x="886.57" y="1722" width="101.01" height="157" rx="50.5" ry="50.5"/>
  <rect class="cls-9" x="882.57" y="1595.12" width="101.01" height="101.01" rx="50.5" ry="50.5"/>
  <rect class="cls-9" x="2089.57" y="2181" width="101.01" height="314" rx="50.5" ry="50.5"/>
  <rect class="cls-9" x="2089.57" y="1722" width="101.01" height="157" rx="50.5" ry="50.5"/>
  <rect class="cls-9" x="2085.57" y="1595.12" width="101.01" height="101.01" rx="50.5" ry="50.5"/>
  <rect class="cls-9" x="3352.57" y="2182" width="101.01" height="314" rx="50.5" ry="50.5"/>
  <rect class="cls-9" x="3352.57" y="1723" width="101.01" height="157" rx="50.5" ry="50.5"/>
  <rect class="cls-9" x="3348.57" y="1596.12" width="101.01" height="101.01" rx="50.5" ry="50.5"/>
  <g>
    <path class="cls-11" d="M2647.54,2768.28v113.07h38.74v18.69h-58.62v-131.76h19.88Z"/>
    <path class="cls-11" d="M2789.88,2868.03h-56.41l-14.68,32h-21.42l65.2-140.03,62.89,140.03h-21.76l-13.82-32ZM2781.77,2849.35l-19.54-44.8-20.48,44.8h40.02Z"/>
    <path class="cls-11" d="M2916.43,2787.9l-16.13,9.56c-3.02-5.23-5.89-8.65-8.62-10.24-2.85-1.82-6.51-2.73-11.01-2.73-5.52,0-10.1,1.57-13.74,4.69-3.64,3.07-5.46,6.94-5.46,11.61,0,6.43,4.78,11.61,14.34,15.53l13.14,5.38c10.7,4.32,18.52,9.6,23.47,15.83,4.95,6.23,7.42,13.87,7.42,22.91,0,12.12-4.04,22.13-12.12,30.04-8.14,7.97-18.23,11.95-30.29,11.95-11.43,0-20.88-3.38-28.33-10.15-7.34-6.77-11.92-16.3-13.74-28.59l20.14-4.44c.91,7.74,2.5,13.09,4.78,16.04,4.1,5.69,10.07,8.53,17.92,8.53,6.2,0,11.35-2.08,15.45-6.23,4.1-4.15,6.14-9.42,6.14-15.79,0-2.56-.36-4.91-1.07-7.04-.71-2.13-1.82-4.1-3.33-5.89-1.51-1.79-3.46-3.47-5.84-5.04-2.39-1.56-5.23-3.06-8.53-4.48l-12.71-5.29c-18.04-7.62-27.05-18.77-27.05-33.45,0-9.9,3.78-18.18,11.35-24.83,7.57-6.71,16.98-10.07,28.25-10.07,15.19,0,27.05,7.4,35.58,22.19Z"/>
    <path class="cls-11" d="M2982.65,2786.97v113.07h-19.88v-113.07h-30.29v-18.69h80.38v18.69h-30.21Z"/>
    <path class="cls-11" d="M3129.17,2843.88l40.79,56.15h-24.32l-37.63-53.93h-3.58v53.93h-19.88v-131.76h23.3c17.41,0,29.98,3.27,37.72,9.81,8.53,7.28,12.8,16.9,12.8,28.84,0,9.33-2.67,17.35-8.02,24.06-5.35,6.71-12.4,11.01-21.16,12.89ZM3104.42,2828.78h6.31c18.83,0,28.25-7.2,28.25-21.59,0-13.48-9.16-20.22-27.48-20.22h-7.08v41.81Z"/>
    <path class="cls-11" d="M3262.46,2786.97h-52.82v31.66h51.29v18.69h-51.29v44.03h52.82v18.69h-72.7v-131.76h72.7v18.69Z"/>
    <path class="cls-11" d="M3363.07,2787.9l-16.13,9.56c-3.02-5.23-5.89-8.65-8.62-10.24-2.85-1.82-6.51-2.73-11.01-2.73-5.52,0-10.1,1.57-13.74,4.69-3.64,3.07-5.46,6.94-5.46,11.61,0,6.43,4.78,11.61,14.34,15.53l13.14,5.38c10.7,4.32,18.52,9.6,23.47,15.83,4.95,6.23,7.42,13.87,7.42,22.91,0,12.12-4.04,22.13-12.12,30.04-8.14,7.97-18.23,11.95-30.29,11.95-11.43,0-20.88-3.38-28.33-10.15-7.34-6.77-11.92-16.3-13.74-28.59l20.14-4.44c.91,7.74,2.5,13.09,4.78,16.04,4.1,5.69,10.07,8.53,17.92,8.53,6.2,0,11.35-2.08,15.45-6.23,4.1-4.15,6.14-9.42,6.14-15.79,0-2.56-.36-4.91-1.07-7.04-.71-2.13-1.82-4.1-3.33-5.89-1.51-1.79-3.46-3.47-5.84-5.04-2.39-1.56-5.23-3.06-8.53-4.48l-12.71-5.29c-18.04-7.62-27.05-18.77-27.05-33.45,0-9.9,3.78-18.18,11.35-24.83,7.57-6.71,16.98-10.07,28.25-10.07,15.19,0,27.05,7.4,35.58,22.19Z"/>
    <path class="cls-11" d="M3383.89,2833.56c0-18.55,6.8-34.48,20.39-47.79,13.54-13.31,29.81-19.97,48.81-19.97s34.87,6.71,48.3,20.14c13.48,13.43,20.22,29.56,20.22,48.38s-6.77,35.02-20.31,48.21c-13.6,13.26-30.01,19.88-49.24,19.88-17.01,0-32.29-5.89-45.82-17.66-14.91-13.03-22.36-30.09-22.36-51.2ZM3403.94,2833.81c0,14.56,4.89,26.54,14.68,35.93,9.73,9.39,20.96,14.08,33.71,14.08,13.82,0,25.49-4.78,34.99-14.34,9.5-9.67,14.25-21.45,14.25-35.33s-4.69-25.83-14.08-35.33c-9.33-9.56-20.88-14.34-34.65-14.34s-25.29,4.78-34.73,14.34c-9.44,9.44-14.17,21.11-14.17,34.99Z"/>
    <path class="cls-11" d="M3591.25,2843.88l40.79,56.15h-24.32l-37.63-53.93h-3.58v53.93h-19.88v-131.76h23.3c17.41,0,29.98,3.27,37.72,9.81,8.53,7.28,12.8,16.9,12.8,28.84,0,9.33-2.67,17.35-8.02,24.06-5.35,6.71-12.4,11.01-21.16,12.89ZM3566.51,2828.78h6.31c18.83,0,28.25-7.2,28.25-21.59,0-13.48-9.16-20.22-27.48-20.22h-7.08v41.81Z"/>
    <path class="cls-11" d="M3686.66,2786.97v113.07h-19.88v-113.07h-30.29v-18.69h80.38v18.69h-30.21Z"/>
    <path class="cls-11" d="M2769.78,3077.75h-56.41l-14.68,32h-21.42l65.2-140.03,62.89,140.03h-21.76l-13.82-32ZM2761.68,3059.06l-19.54-44.8-20.48,44.8h40.02Z"/>
    <path class="cls-11" d="M2821.84,3109.75v-140.72l96.09,100.52v-91.56h19.88v139.78l-96.09-100.27v92.25h-19.88Z"/>
    <path class="cls-11" d="M3005.73,2996.68v113.07h-19.88v-113.07h-30.29v-18.69h80.38v18.69h-30.21Z"/>
    <path class="cls-11" d="M3073.57,2978v131.76h-19.88v-131.76h19.88Z"/>
    <path class="cls-11" d="M3105.23,3109.75v-131.76h19.8c8.82,0,15.84.68,21.08,2.05,5.29,1.37,9.76,3.67,13.4,6.91,3.7,3.36,6.63,7.54,8.79,12.54,2.22,5.06,3.33,10.18,3.33,15.36,0,9.44-3.61,17.44-10.84,23.98,7,2.39,12.51,6.57,16.55,12.54,4.1,5.92,6.14,12.8,6.14,20.65,0,10.3-3.64,19-10.92,26.11-4.38,4.38-9.3,7.42-14.76,9.13-5.97,1.65-13.45,2.47-22.44,2.47h-30.12ZM3125.12,3034.57h6.23c7.39,0,12.81-1.64,16.26-4.91,3.44-3.27,5.16-8.09,5.16-14.46s-1.76-10.91-5.29-14.12c-3.53-3.21-8.65-4.82-15.36-4.82h-7v38.32ZM3125.12,3091.06h12.29c8.99,0,15.59-1.76,19.8-5.29,4.44-3.81,6.66-8.65,6.66-14.51s-2.13-10.47-6.4-14.34c-4.15-3.81-11.58-5.72-22.27-5.72h-10.07v39.85Z"/>
    <path class="cls-11" d="M3228.46,2978v131.76h-19.88v-131.76h19.88Z"/>
    <path class="cls-11" d="M3253.54,3043.28c0-18.55,6.8-34.48,20.39-47.79,13.54-13.31,29.81-19.97,48.81-19.97s34.87,6.71,48.3,20.14c13.48,13.43,20.22,29.56,20.22,48.38s-6.77,35.02-20.31,48.21c-13.6,13.26-30.01,19.88-49.24,19.88-17.01,0-32.29-5.89-45.82-17.66-14.91-13.03-22.36-30.09-22.36-51.2ZM3273.6,3043.53c0,14.56,4.89,26.54,14.68,35.93,9.73,9.39,20.96,14.08,33.71,14.08,13.82,0,25.49-4.78,34.99-14.34,9.5-9.67,14.25-21.45,14.25-35.33s-4.69-25.83-14.08-35.33c-9.33-9.56-20.88-14.34-34.65-14.34s-25.29,4.78-34.73,14.34c-9.44,9.44-14.17,21.11-14.17,34.99Z"/>
    <path class="cls-11" d="M3447.94,2996.68v113.07h-19.88v-113.07h-30.29v-18.69h80.38v18.69h-30.21Z"/>
    <path class="cls-11" d="M3515.78,2978v131.76h-19.88v-131.76h19.88Z"/>
    <path class="cls-11" d="M3644.8,2985.08v23.55c-11.49-9.61-23.38-14.42-35.67-14.42-13.54,0-24.95,4.86-34.22,14.59-9.33,9.67-13.99,21.5-13.99,35.5s4.66,25.49,13.99,34.99c9.33,9.5,20.76,14.25,34.3,14.25,7,0,12.94-1.14,17.83-3.41,2.73-1.14,5.56-2.67,8.49-4.61,2.93-1.93,6.02-4.27,9.26-7v23.98c-11.38,6.43-23.33,9.64-35.84,9.64-18.83,0-34.9-6.57-48.21-19.71-13.26-13.26-19.88-29.24-19.88-47.96,0-16.78,5.55-31.74,16.64-44.89,13.65-16.1,31.32-24.15,52.99-24.15,11.83,0,23.27,3.21,34.3,9.64Z"/>
  </g>
  <polygon class="cls-7" points="3003.5 1171.53 3148.13 1316.15 3293.64 1170.64 3197.26 1170.93 3197.26 807.74 3099.51 807.74 3099.51 1171.23 3003.5 1171.53"/>
  <rect class="cls-7" x="2557" y="392.5" width="1223" height="386"/>
  <g>
    <path d="M2630.83,486.45l14.43,31.45,15.56-36.49,15.67,36.49,14.26-31.45h14.26l-28.85,59.23-15.33-35.47-15.5,35.47-28.79-59.23h14.31Z"/>
    <path d="M2762.01,517h-39.49c.34,4.53,1.81,8.13,4.41,10.8,2.6,2.64,5.94,3.96,10.01,3.96,3.17,0,5.79-.75,7.86-2.26,2.04-1.51,4.36-4.3,6.96-8.37l10.75,6c-1.66,2.83-3.41,5.25-5.26,7.27-1.85,2.02-3.83,3.68-5.94,4.98-2.11,1.3-4.39,2.25-6.84,2.86-2.45.6-5.11.91-7.98.91-8.22,0-14.82-2.64-19.8-7.92-4.98-5.32-7.47-12.37-7.47-21.16s2.41-15.76,7.24-21.16c4.87-5.32,11.31-7.98,19.35-7.98s14.52,2.58,19.23,7.75c4.68,5.13,7.01,12.24,7.01,21.33l-.06,3ZM2748.95,506.59c-1.77-6.79-6.05-10.18-12.84-10.18-1.55,0-3,.24-4.36.71-1.36.47-2.59,1.15-3.7,2.04-1.11.89-2.07,1.95-2.86,3.2s-1.4,2.66-1.81,4.24h25.57Z"/>
    <path d="M2852.3,446h12.78v95.55h-12.78v-5.77c-5.02,4.9-10.69,7.35-17.03,7.35-7.54,0-13.8-2.75-18.78-8.26-4.94-5.62-7.41-12.63-7.41-21.04s2.47-15.08,7.41-20.59c4.9-5.54,11.07-8.32,18.5-8.32,6.45,0,12.22,2.64,17.31,7.92v-46.84ZM2822.09,513.83c0,5.28,1.41,9.58,4.24,12.9,2.9,3.36,6.56,5.03,10.97,5.03,4.71,0,8.52-1.62,11.43-4.87,2.9-3.36,4.36-7.62,4.36-12.78s-1.45-9.43-4.36-12.78c-2.9-3.28-6.68-4.92-11.31-4.92-4.38,0-8.03,1.66-10.97,4.98-2.9,3.36-4.36,7.51-4.36,12.45Z"/>
    <path d="M2878.55,513.6c0-7.96,2.85-14.73,8.54-20.31,5.69-5.58,12.63-8.37,20.82-8.37s15.2,2.81,20.93,8.43c5.66,5.62,8.49,12.52,8.49,20.7s-2.85,15.18-8.54,20.76c-5.73,5.54-12.77,8.32-21.1,8.32s-15.18-2.83-20.76-8.49c-5.58-5.58-8.37-12.6-8.37-21.04ZM2891.56,513.83c0,5.51,1.47,9.86,4.41,13.07,3.02,3.24,7,4.87,11.94,4.87s8.96-1.6,11.94-4.81c2.98-3.2,4.47-7.49,4.47-12.84s-1.49-9.64-4.47-12.84c-3.02-3.24-7-4.87-11.94-4.87s-8.81,1.62-11.82,4.87c-3.02,3.24-4.53,7.43-4.53,12.56Z"/>
    <path d="M2950.79,486.45h12.78v5.09c4.45-4.41,9.47-6.62,15.05-6.62,6.41,0,11.41,2.02,14.99,6.05,3.09,3.43,4.64,9.03,4.64,16.8v33.77h-12.78v-30.77c0-5.43-.76-9.18-2.26-11.26-1.47-2.11-4.15-3.17-8.03-3.17-4.22,0-7.22,1.4-8.99,4.19-1.73,2.75-2.6,7.56-2.6,14.43v26.59h-12.78v-55.1Z"/>
    <path d="M3026.36,450.41l11.31,4.41-16.12,32.36-8.6-3.56,13.41-33.21Z"/>
    <path d="M3065.74,498.33v43.22h-12.73v-43.22h-5.43v-11.88h5.43v-20.2h12.73v20.2h9.9v11.88h-9.9Z"/>
    <path d="M3126.95,486.45l14.43,31.45,15.56-36.49,15.67,36.49,14.26-31.45h14.26l-28.85,59.23-15.33-35.47-15.5,35.47-28.79-59.23h14.31Z"/>
    <path d="M3248.46,486.45h12.78v55.1h-12.78v-5.77c-5.24,4.9-10.88,7.35-16.91,7.35-7.62,0-13.92-2.75-18.89-8.26-4.94-5.62-7.41-12.63-7.41-21.04s2.47-15.14,7.41-20.65c4.94-5.51,11.12-8.26,18.55-8.26,6.41,0,12.16,2.64,17.25,7.92v-6.39ZM3218.25,513.83c0,5.28,1.41,9.58,4.24,12.9,2.9,3.36,6.56,5.03,10.97,5.03,4.71,0,8.52-1.62,11.43-4.87,2.9-3.36,4.36-7.62,4.36-12.78s-1.45-9.43-4.36-12.78c-2.9-3.28-6.68-4.92-11.31-4.92-4.38,0-8.03,1.66-10.97,4.98-2.9,3.36-4.36,7.51-4.36,12.45Z"/>
    <path d="M3277.31,486.45h12.78v5.09c4.45-4.41,9.47-6.62,15.05-6.62,6.41,0,11.41,2.02,14.99,6.05,3.09,3.43,4.64,9.03,4.64,16.8v33.77h-12.78v-30.77c0-5.43-.76-9.18-2.26-11.26-1.47-2.11-4.15-3.17-8.03-3.17-4.22,0-7.22,1.4-8.99,4.19-1.73,2.75-2.6,7.56-2.6,14.43v26.59h-12.78v-55.1Z"/>
    <path d="M3353.96,498.33v43.22h-12.73v-43.22h-5.43v-11.88h5.43v-20.2h12.73v20.2h9.9v11.88h-9.9Z"/>
    <path d="M3421.39,498.33v43.22h-12.73v-43.22h-5.43v-11.88h5.43v-20.2h12.73v20.2h9.9v11.88h-9.9Z"/>
    <path d="M3438.14,513.6c0-7.96,2.85-14.73,8.54-20.31,5.69-5.58,12.63-8.37,20.82-8.37s15.2,2.81,20.93,8.43c5.66,5.62,8.49,12.52,8.49,20.7s-2.85,15.18-8.54,20.76c-5.73,5.54-12.77,8.32-21.1,8.32s-15.18-2.83-20.76-8.49c-5.58-5.58-8.37-12.6-8.37-21.04ZM3451.15,513.83c0,5.51,1.47,9.86,4.41,13.07,3.02,3.24,7,4.87,11.94,4.87s8.96-1.6,11.94-4.81c2.98-3.2,4.47-7.49,4.47-12.84s-1.49-9.64-4.47-12.84c-3.02-3.24-7-4.87-11.94-4.87s-8.81,1.62-11.82,4.87c-3.02,3.24-4.53,7.43-4.53,12.56Z"/>
    <path d="M3596.31,517h-39.49c.34,4.53,1.81,8.13,4.41,10.8,2.6,2.64,5.94,3.96,10.01,3.96,3.17,0,5.79-.75,7.86-2.26,2.04-1.51,4.36-4.3,6.96-8.37l10.75,6c-1.66,2.83-3.41,5.25-5.26,7.27-1.85,2.02-3.83,3.68-5.94,4.98-2.11,1.3-4.39,2.25-6.84,2.86-2.45.6-5.11.91-7.98.91-8.22,0-14.82-2.64-19.8-7.92-4.98-5.32-7.47-12.37-7.47-21.16s2.41-15.76,7.24-21.16c4.87-5.32,11.31-7.98,19.35-7.98s14.52,2.58,19.23,7.75c4.68,5.13,7.01,12.24,7.01,21.33l-.06,3ZM3583.24,506.59c-1.77-6.79-6.05-10.18-12.84-10.18-1.55,0-3,.24-4.36.71-1.36.47-2.59,1.15-3.7,2.04-1.11.89-2.07,1.95-2.86,3.2s-1.4,2.66-1.81,4.24h25.57Z"/>
    <path d="M3610.22,486.45h12.78v5.09c4.45-4.41,9.47-6.62,15.05-6.62,6.41,0,11.41,2.02,14.99,6.05,3.09,3.43,4.64,9.03,4.64,16.8v33.77h-12.78v-30.77c0-5.43-.76-9.18-2.26-11.26-1.47-2.11-4.15-3.17-8.03-3.17-4.22,0-7.22,1.4-8.99,4.19-1.73,2.75-2.6,7.56-2.6,14.43v26.59h-12.78v-55.1Z"/>
    <path d="M3714.37,446h12.78v95.55h-12.78v-5.77c-5.02,4.9-10.69,7.35-17.03,7.35-7.54,0-13.8-2.75-18.78-8.26-4.94-5.62-7.41-12.63-7.41-21.04s2.47-15.08,7.41-20.59c4.9-5.54,11.07-8.32,18.5-8.32,6.45,0,12.22,2.64,17.31,7.92v-46.84ZM3684.16,513.83c0,5.28,1.41,9.58,4.24,12.9,2.9,3.36,6.56,5.03,10.97,5.03,4.71,0,8.52-1.62,11.43-4.87,2.9-3.36,4.36-7.62,4.36-12.78s-1.45-9.43-4.36-12.78c-2.9-3.28-6.68-4.92-11.31-4.92-4.38,0-8.03,1.66-10.97,4.98-2.9,3.36-4.36,7.51-4.36,12.45Z"/>
    <path d="M2853.74,625.47v31.62c0,9.13,3.6,13.69,10.8,13.69s10.8-4.56,10.8-13.69v-31.62h12.73v31.91c0,4.41-.55,8.22-1.64,11.43-1.06,2.87-2.89,5.45-5.49,7.75-4.3,3.73-9.77,5.6-16.41,5.6s-12.05-1.87-16.35-5.6c-2.64-2.3-4.51-4.88-5.6-7.75-1.06-2.56-1.58-6.37-1.58-11.43v-31.91h12.73Z"/>
    <path d="M2916.87,710.56h-12.73v-85.08h12.73v6c5.02-5.02,10.71-7.52,17.08-7.52,7.58,0,13.82,2.79,18.72,8.37,4.98,5.54,7.47,12.54,7.47,20.99s-2.47,15.14-7.41,20.65c-4.9,5.47-11.09,8.2-18.55,8.2-6.45,0-12.22-2.58-17.31-7.75v36.15ZM2947.14,653.36c0-5.28-1.43-9.58-4.3-12.9-2.9-3.36-6.56-5.03-10.97-5.03-4.68,0-8.47,1.62-11.37,4.87-2.9,3.24-4.36,7.51-4.36,12.78s1.45,9.43,4.36,12.78c2.87,3.28,6.64,4.92,11.31,4.92,4.41,0,8.05-1.66,10.92-4.98,2.94-3.32,4.41-7.47,4.41-12.45Z"/>
    <path d="M3022.09,625.47v31.62c0,9.13,3.6,13.69,10.8,13.69s10.8-4.56,10.8-13.69v-31.62h12.73v31.91c0,4.41-.55,8.22-1.64,11.43-1.06,2.87-2.89,5.45-5.49,7.75-4.3,3.73-9.77,5.6-16.41,5.6s-12.05-1.87-16.35-5.6c-2.64-2.3-4.51-4.88-5.6-7.75-1.06-2.56-1.58-6.37-1.58-11.43v-31.91h12.73Z"/>
    <path d="M3104.52,634.86l-10.52,5.6c-1.66-3.39-3.71-5.09-6.17-5.09-1.17,0-2.17.39-3,1.16-.83.77-1.24,1.76-1.24,2.97,0,2.11,2.45,4.21,7.35,6.28,6.75,2.9,11.29,5.58,13.63,8.03,2.34,2.45,3.51,5.75,3.51,9.9,0,5.32-1.96,9.77-5.88,13.35-3.81,3.39-8.41,5.09-13.8,5.09-9.24,0-15.78-4.51-19.63-13.52l10.86-5.03c1.51,2.64,2.66,4.32,3.45,5.03,1.55,1.43,3.39,2.15,5.54,2.15,4.3,0,6.45-1.96,6.45-5.88,0-2.26-1.66-4.37-4.98-6.34-1.28-.64-2.57-1.26-3.85-1.87-1.28-.6-2.58-1.22-3.9-1.87-3.7-1.81-6.3-3.62-7.81-5.43-1.92-2.3-2.89-5.26-2.89-8.88,0-4.79,1.64-8.75,4.92-11.88,3.36-3.13,7.43-4.7,12.22-4.7,7.05,0,12.29,3.64,15.73,10.92Z"/>
    <path d="M3117.58,602.56c0-2.22.81-4.15,2.43-5.77,1.62-1.62,3.56-2.43,5.83-2.43s4.26.81,5.88,2.43c1.62,1.58,2.43,3.53,2.43,5.83s-.81,4.26-2.43,5.88c-1.58,1.62-3.53,2.43-5.83,2.43s-4.26-.81-5.88-2.43c-1.62-1.62-2.43-3.6-2.43-5.94ZM3132.24,625.47v55.1h-12.73v-55.1h12.73Z"/>
    <path d="M3148.36,625.47h12.78v5.09c4.45-4.41,9.47-6.62,15.05-6.62,6.41,0,11.41,2.02,14.99,6.05,3.09,3.43,4.64,9.03,4.64,16.8v33.77h-12.78v-30.77c0-5.43-.76-9.18-2.26-11.26-1.47-2.11-4.15-3.17-8.03-3.17-4.22,0-7.22,1.4-8.99,4.19-1.73,2.75-2.6,7.56-2.6,14.43v26.59h-12.78v-55.1Z"/>
    <path d="M3265.17,679.27c0,2.6-.08,4.89-.25,6.87-.17,1.98-.41,3.72-.71,5.23-.91,4.15-2.68,7.71-5.32,10.69-4.98,5.73-11.82,8.6-20.53,8.6-7.35,0-13.41-1.98-18.16-5.94-4.9-4.07-7.73-9.71-8.49-16.91h12.78c.49,2.72,1.3,4.81,2.43,6.28,2.64,3.43,6.49,5.15,11.54,5.15,9.31,0,13.97-5.71,13.97-17.14v-7.69c-5.05,5.17-10.88,7.75-17.48,7.75-7.5,0-13.65-2.72-18.44-8.15-4.83-5.51-7.24-12.39-7.24-20.65s2.24-14.86,6.73-20.48c4.83-5.96,11.2-8.94,19.12-8.94,6.94,0,12.71,2.58,17.31,7.75v-6.22h12.73v53.8ZM3252.96,653.14c0-5.35-1.43-9.64-4.3-12.84-2.9-3.28-6.62-4.92-11.14-4.92-4.83,0-8.64,1.79-11.43,5.37-2.53,3.21-3.79,7.35-3.79,12.45s1.26,9.13,3.79,12.33c2.75,3.51,6.56,5.26,11.43,5.26s8.71-1.77,11.54-5.32c2.6-3.2,3.9-7.32,3.9-12.33Z"/>
    <path d="M3330.12,637.35v43.22h-12.73v-43.22h-5.43v-11.88h5.43v-20.2h12.73v20.2h9.9v11.88h-9.9Z"/>
    <path d="M3350.99,585.03h12.73v45.03c4.53-4.07,9.52-6.11,14.99-6.11,6.22,0,11.2,2.02,14.93,6.05,3.17,3.51,4.75,9.11,4.75,16.8v33.77h-12.73v-32.58c0-4.41-.78-7.61-2.35-9.59s-4.08-2.97-7.55-2.97c-4.45,0-7.58,1.38-9.39,4.13-1.77,2.79-2.66,7.58-2.66,14.37v26.64h-12.73v-95.55Z"/>
    <path d="M3412.6,602.56c0-2.22.81-4.15,2.43-5.77,1.62-1.62,3.56-2.43,5.83-2.43s4.26.81,5.88,2.43c1.62,1.58,2.43,3.53,2.43,5.83s-.81,4.26-2.43,5.88c-1.58,1.62-3.53,2.43-5.83,2.43s-4.26-.81-5.88-2.43c-1.62-1.62-2.43-3.6-2.43-5.94ZM3427.25,625.47v55.1h-12.73v-55.1h12.73Z"/>
    <path d="M3475.39,634.86l-10.52,5.6c-1.66-3.39-3.71-5.09-6.17-5.09-1.17,0-2.17.39-3,1.16-.83.77-1.24,1.76-1.24,2.97,0,2.11,2.45,4.21,7.35,6.28,6.75,2.9,11.29,5.58,13.63,8.03,2.34,2.45,3.51,5.75,3.51,9.9,0,5.32-1.96,9.77-5.88,13.35-3.81,3.39-8.41,5.09-13.8,5.09-9.24,0-15.78-4.51-19.63-13.52l10.86-5.03c1.51,2.64,2.66,4.32,3.45,5.03,1.55,1.43,3.39,2.15,5.54,2.15,4.3,0,6.45-1.96,6.45-5.88,0-2.26-1.66-4.37-4.98-6.34-1.28-.64-2.57-1.26-3.85-1.87-1.28-.6-2.58-1.22-3.9-1.87-3.7-1.81-6.3-3.62-7.81-5.43-1.92-2.3-2.89-5.26-2.89-8.88,0-4.79,1.64-8.75,4.92-11.88,3.36-3.13,7.43-4.7,12.22-4.7,7.05,0,12.29,3.64,15.73,10.92Z"/>
    <path d="M3492.36,674.24c0-2.11.77-3.94,2.32-5.49,1.55-1.55,3.39-2.32,5.54-2.32s4,.77,5.54,2.32c1.55,1.55,2.32,3.39,2.32,5.54s-.77,4.05-2.32,5.6c-1.51,1.51-3.36,2.26-5.54,2.26s-4.09-.76-5.6-2.26c-1.51-1.51-2.26-3.39-2.26-5.66Z"/>
  </g>
</svg>